<?xml version="1.0" encoding="UTF-8" standalone="no"?>
<!-- Created with Inkscape (http://www.inkscape.org/) -->

<svg
   xmlns:dc="http://purl.org/dc/elements/1.1/"
   xmlns:cc="http://creativecommons.org/ns#"
   xmlns:rdf="http://www.w3.org/1999/02/22-rdf-syntax-ns#"
   xmlns:svg="http://www.w3.org/2000/svg"
   xmlns="http://www.w3.org/2000/svg"
   xmlns:sodipodi="http://sodipodi.sourceforge.net/DTD/sodipodi-0.dtd"
   xmlns:inkscape="http://www.inkscape.org/namespaces/inkscape"
   width="42.324696mm"
   height="28.222221mm"
   viewBox="0 0 149.96939 99.999997"
   id="svg2"
   version="1.1"
   inkscape:version="0.91 r13725"
   sodipodi:docname="flag-cz.svg">
  <defs
     id="defs4" />
  <sodipodi:namedview
     id="base"
     pagecolor="#ffffff"
     bordercolor="#666666"
     borderopacity="1.0"
     inkscape:pageopacity="0.0"
     inkscape:pageshadow="2"
     inkscape:zoom="1"
     inkscape:cx="104.01366"
     inkscape:cy="18.602253"
     inkscape:document-units="px"
     inkscape:current-layer="g4147"
     showgrid="false"
     fit-margin-top="0"
     fit-margin-left="0"
     fit-margin-right="0"
     fit-margin-bottom="0"
     inkscape:window-width="1440"
     inkscape:window-height="797"
     inkscape:window-x="0"
     inkscape:window-y="0"
     inkscape:window-maximized="1" />
  <metadata
     id="metadata7">
    <rdf:RDF>
      <cc:Work
         rdf:about="">
        <dc:format>image/svg+xml</dc:format>
        <dc:type
           rdf:resource="http://purl.org/dc/dcmitype/StillImage" />
        <dc:title></dc:title>
      </cc:Work>
    </rdf:RDF>
  </metadata>
  <g
     inkscape:label="Vrstva 1"
     inkscape:groupmode="layer"
     id="layer1"
     transform="translate(-2,-951.61496)">
    <g
       id="g4147"
       transform="matrix(1.3812971,0,0,1.3812971,-17.930193,-393.08465)">
      <path
         style="fill:#f4f4f4;fill-opacity:1"
         d="m 14.428607,1009.7026 0,-36.19753 54.28571,0 54.285713,0 0,36.19753 0,36.1976 -54.285713,0 -54.28571,0 0,-36.1976 z"
         id="path4153"
         inkscape:connector-curvature="0" />
      <path
         style="fill:#d51319"
         d="m 14.428607,1009.7026 0,-36.19762 27.132252,18.09882 27.132253,18.0988 27.153457,0.011 27.153461,0.011 0,18.088 0,18.0881 -54.285713,0 -54.28571,0 0,-36.1976 z"
         id="path4151"
         inkscape:connector-curvature="0" />
      <path
         style="fill:#10437c"
         d="m 14.428607,1009.7026 0,-36.1976 27.111047,18.0776 c 14.911076,9.9427 27.111047,18.0967 27.111047,18.12 0,0.023 -12.199971,8.1773 -27.111047,18.12 l -27.111047,18.0776 0,-36.1976 z"
         id="path4149"
         inkscape:connector-curvature="0" />
    </g>
  </g>
</svg>
