<?xml version="1.0" encoding="UTF-8" standalone="no"?>
<!-- Created with Inkscape (http://www.inkscape.org/) -->

<svg
   xmlns:dc="http://purl.org/dc/elements/1.1/"
   xmlns:cc="http://creativecommons.org/ns#"
   xmlns:rdf="http://www.w3.org/1999/02/22-rdf-syntax-ns#"
   xmlns:svg="http://www.w3.org/2000/svg"
   xmlns="http://www.w3.org/2000/svg"
   xmlns:sodipodi="http://sodipodi.sourceforge.net/DTD/sodipodi-0.dtd"
   xmlns:inkscape="http://www.inkscape.org/namespaces/inkscape"
   width="42.324696mm"
   height="28.222221mm"
   viewBox="0 0 149.96939 99.999997"
   id="svg2"
   version="1.1"
   inkscape:version="0.91 r13725"
   sodipodi:docname="flag-fr.svg">
  <defs
     id="defs4" />
  <sodipodi:namedview
     id="base"
     pagecolor="#ffffff"
     bordercolor="#666666"
     borderopacity="1.0"
     inkscape:pageopacity="0.0"
     inkscape:pageshadow="2"
     inkscape:zoom="4"
     inkscape:cx="103.32935"
     inkscape:cy="61.854622"
     inkscape:document-units="px"
     inkscape:current-layer="g6465"
     showgrid="false"
     fit-margin-top="0"
     fit-margin-left="0"
     fit-margin-right="0"
     fit-margin-bottom="0"
     inkscape:window-width="1440"
     inkscape:window-height="797"
     inkscape:window-x="0"
     inkscape:window-y="0"
     inkscape:window-maximized="1" />
  <metadata
     id="metadata7">
    <rdf:RDF>
      <cc:Work
         rdf:about="">
        <dc:format>image/svg+xml</dc:format>
        <dc:type
           rdf:resource="http://purl.org/dc/dcmitype/StillImage" />
        <dc:title></dc:title>
      </cc:Work>
    </rdf:RDF>
  </metadata>
  <g
     inkscape:label="Vrstva 1"
     inkscape:groupmode="layer"
     id="layer1"
     transform="translate(-2,-951.61496)">
    <g
       id="g4147"
       transform="matrix(1.3812971,0,0,1.3812971,-17.930193,-393.08465)">
      <g
         id="g4185"
         transform="translate(4.3651492e-6,3.7517339e-8)">
        <g
           id="g4223">
          <g
             id="g6465"
             transform="translate(118.72898,4.3437433)">
            <path
               style="fill:#f2f2f2;fill-opacity:1"
               d="m -76.091498,1006.3547 0,-30.4968 22.694361,0 22.694364,0 0,30.4968 0,30.4967 -22.694364,0 -22.694361,0 0,-30.4967 z"
               id="path6471"
               inkscape:connector-curvature="0" />
            <path
               style="fill:#d31122"
               d="m -104.30038,1006.4452 0,-30.76829 18.028235,0 18.028231,0 0,30.76829 0,30.7681 -18.028231,0 -18.028235,0 0,-30.7681 z m 72.537121,0 0,-30.76829 18.028231,0 18.0282301,0 0,30.76829 0,30.7681 -18.0282301,0 -18.028231,0 0,-30.7681 z"
               id="path6469"
               inkscape:connector-curvature="0" />
            <path
               style="fill:#0b1288;fill-opacity:1"
               d="m -104.30038,1006.4452 0,-30.76829 18.028235,0 18.028231,0 0,30.76829 0,30.7681 -18.028231,0 -18.028235,0 0,-30.7681 z"
               id="path6467"
               inkscape:connector-curvature="0" />
          </g>
        </g>
      </g>
    </g>
  </g>
</svg>
