<?xml version="1.0" encoding="UTF-8" standalone="no"?>
<!-- Created with Inkscape (http://www.inkscape.org/) -->

<svg
   xmlns:dc="http://purl.org/dc/elements/1.1/"
   xmlns:cc="http://creativecommons.org/ns#"
   xmlns:rdf="http://www.w3.org/1999/02/22-rdf-syntax-ns#"
   xmlns:svg="http://www.w3.org/2000/svg"
   xmlns="http://www.w3.org/2000/svg"
   xmlns:sodipodi="http://sodipodi.sourceforge.net/DTD/sodipodi-0.dtd"
   xmlns:inkscape="http://www.inkscape.org/namespaces/inkscape"
   width="42.324696mm"
   height="28.222221mm"
   viewBox="0 0 149.96939 99.999997"
   id="svg2"
   version="1.1"
   inkscape:version="0.91 r13725"
   sodipodi:docname="flag-gb.svg">
  <defs
     id="defs4" />
  <sodipodi:namedview
     id="base"
     pagecolor="#ffffff"
     bordercolor="#666666"
     borderopacity="1.0"
     inkscape:pageopacity="0.0"
     inkscape:pageshadow="2"
     inkscape:zoom="1"
     inkscape:cx="104.01366"
     inkscape:cy="18.602253"
     inkscape:document-units="px"
     inkscape:current-layer="g4223"
     showgrid="false"
     fit-margin-top="0"
     fit-margin-left="0"
     fit-margin-right="0"
     fit-margin-bottom="0"
     inkscape:window-width="1440"
     inkscape:window-height="797"
     inkscape:window-x="0"
     inkscape:window-y="0"
     inkscape:window-maximized="1" />
  <metadata
     id="metadata7">
    <rdf:RDF>
      <cc:Work
         rdf:about="">
        <dc:format>image/svg+xml</dc:format>
        <dc:type
           rdf:resource="http://purl.org/dc/dcmitype/StillImage" />
        <dc:title></dc:title>
      </cc:Work>
    </rdf:RDF>
  </metadata>
  <g
     inkscape:label="Vrstva 1"
     inkscape:groupmode="layer"
     id="layer1"
     transform="translate(-2,-951.61496)">
    <g
       id="g4147"
       transform="matrix(1.3812971,0,0,1.3812971,-17.930193,-393.08465)">
      <g
         id="g4185"
         transform="translate(4.3651492e-6,3.7517339e-8)">
        <g
           id="g4223">
          <g
             id="g4261">
            <path
               style="fill:#fcfbfc"
               d="m 14.428602,1010.7887 0,-29.32026 54.29679,0 54.296788,0 0,29.32026 0,29.3203 -54.296788,0 -54.29679,0 0,-29.3203 z"
               id="path4267"
               inkscape:connector-curvature="0" />
            <path
               style="fill:#ce142a"
               d="m 32.552894,1030.3251 18.103083,-9.7787 3.930245,0.012 c 2.574034,0.01 3.935128,0.028 3.944392,0.058 0.0078,0.025 -8.089026,4.4215 -17.992898,9.7696 l -18.007042,9.7238 -4.040431,0 -4.040431,0 18.103082,-9.7787 z m 10.524509,0.8679 c 9.072609,-4.9009 16.52198,-8.8999 16.554159,-8.8866 0.04945,0.02 0.0585,1.4002 0.0585,8.9134 l 0,8.8892 -16.554158,0 -16.554158,0 16.495652,-8.9108 z m 20.207786,-2.8007 -0.01069,-11.7166 -24.42295,-0.011 -24.422951,-0.012 0,-5.864 0,-5.864 24.422951,-0.012 24.42295,-0.011 0.01069,-11.71661 0.01069,-11.71665 5.429514,0 5.429514,0 0.01069,11.71665 0.01069,11.71661 24.42295,0.011 24.422953,0.012 0,5.864 0,5.864 -24.422953,0.012 -24.42295,0.011 -0.01069,11.7166 -0.01069,11.7167 -5.429514,0 -5.429514,0 -0.01069,-11.7167 z m 14.475528,2.8275 c 0,-7.5132 0.0091,-8.8929 0.0585,-8.9134 0.03218,-0.013 7.48155,3.9857 16.554158,8.8866 l 16.495645,8.9109 -16.55415,0 -16.554158,0 0,-8.8891 z m 27.220723,-0.8528 c -9.932035,-5.3633 -18.008038,-9.7507 -17.993917,-9.7754 0.01639,-0.029 1.446577,-0.045 3.967891,-0.045 l 3.942269,0 14.051647,7.587 c 7.7284,4.1728 14.0566,7.5918 14.06266,7.5977 0.006,0.01 0.006,0.9907 0,2.1884 l -0.011,2.1776 -18.01953,-9.7306 z m -90.552838,-3.3147 0,-6.5056 11.930447,0.012 c 7.918232,0.01 11.930447,0.027 11.930447,0.057 0,0.025 -5.368701,2.9475 -11.930447,6.494 l -11.930447,6.4483 0,-6.5056 z m 96.652528,0.055 c -6.55591,-3.5451 -11.919842,-6.4662 -11.919842,-6.4914 0,-0.03 4.012212,-0.05 11.930442,-0.057 l 11.93045,-0.012 0,6.5055 c 0,3.578 -0.005,6.5044 -0.0106,6.503 -0.006,0 -5.37454,-2.903 -11.93045,-6.4482 z m -96.652528,-32.58187 0,-6.50558 11.930447,6.44823 c 6.561746,3.54654 11.930447,6.46882 11.930447,6.49402 0,0.03 -4.012215,0.05 -11.930447,0.057 l -11.930447,0.012 0,-6.50557 z m 14.062293,-1.08796 -14.062293,-7.59339 0,-2.18768 0,-2.18768 18.030139,9.7363 c 9.937887,5.36647 18.01864,9.75638 18.004518,9.78108 -0.01639,0.029 -1.446559,0.045 -3.967847,0.045 l -3.942225,0 -14.062292,-7.59343 z m 50.434611,7.54453 c -0.01538,-0.027 -0.02128,-0.056 -0.01311,-0.064 0.0082,-0.01 8.11323,-4.38769 18.011246,-9.73222 l 17.996398,-9.71734 4.04047,0.003 4.04046,0.003 -18.10264,9.77849 -18.102647,9.77857 -3.92111,0 c -2.731384,0 -3.929595,-0.015 -3.94907,-0.049 z m 20.238751,0.01 c -0.01279,-0.022 4.25e-4,-0.061 0.02931,-0.087 0.02891,-0.025 5.402173,-2.93453 11.940583,-6.46486 l 11.88803,-6.41879 0,6.50545 0,6.5055 -11.91734,0 c -6.88389,0 -11.927155,-0.017 -11.940585,-0.041 z m -56.102582,-10.61027 -16.479924,-8.90611 16.554265,-0.003 16.554267,-0.003 -0.01071,8.89853 c -0.0095,7.86886 -0.01808,8.89971 -0.07434,8.90865 -0.035,0.006 -7.479595,-3.99763 -16.543553,-8.89599 z m 34.727323,8.87949 c -0.01556,-0.0168 -0.02828,-4.02657 -0.02828,-8.91061 l 0,-8.88007 16.554158,0.003 16.554154,0.003 -16.47992,8.90553 c -9.063958,4.89804 -16.500603,8.90668 -16.525877,8.90807 -0.02528,0.001 -0.05868,-0.0112 -0.07423,-0.028 z"
               id="path4265"
               inkscape:connector-curvature="0" />
            <path
               style="fill:#00237c"
               d="m 43.077403,1031.193 c 9.072609,-4.9009 16.52198,-8.8999 16.554159,-8.8866 0.04945,0.02 0.0585,1.4002 0.0585,8.9134 l 0,8.8892 -16.554158,0 -16.554158,0 16.495652,-8.9108 z m 34.683314,0.027 c 0,-7.5132 0.0091,-8.8929 0.0585,-8.9134 0.03218,-0.013 7.48155,3.9857 16.554158,8.8866 l 16.495645,8.9109 -16.55415,0 -16.554158,0 0,-8.8891 z m -63.332115,-4.1675 0,-6.5056 11.930447,0.012 c 7.918232,0.01 11.930447,0.027 11.930447,0.057 0,0.025 -5.368701,2.9475 -11.930447,6.494 l -11.930447,6.4483 0,-6.5056 z m 96.652528,0.055 c -6.55591,-3.5451 -11.919842,-6.4662 -11.919842,-6.4914 0,-0.03 4.012212,-0.05 11.930442,-0.057 l 11.93045,-0.012 0,6.5055 c 0,3.578 -0.005,6.5044 -0.0106,6.503 -0.006,0 -5.37454,-2.903 -11.93045,-6.4482 z m -96.652528,-32.58187 0,-6.50558 11.930447,6.44823 c 6.561746,3.54654 11.930447,6.46882 11.930447,6.49402 0,0.03 -4.012215,0.05 -11.930447,0.057 l -11.930447,0.012 0,-6.50557 z m 84.735655,6.46477 c -0.01279,-0.022 4.25e-4,-0.061 0.02931,-0.087 0.02891,-0.025 5.402173,-2.93453 11.940583,-6.46486 l 11.88803,-6.41879 0,6.50545 0,6.5055 -11.91734,0 c -6.88389,0 -11.927155,-0.017 -11.940585,-0.041 z m -56.102582,-10.61027 -16.479924,-8.90611 16.554265,-0.003 16.554267,-0.003 -0.01071,8.89853 c -0.0095,7.86886 -0.01808,8.89971 -0.07434,8.90865 -0.035,0.006 -7.479595,-3.99763 -16.543553,-8.89599 z m 34.727323,8.87949 c -0.01556,-0.0168 -0.02828,-4.02657 -0.02828,-8.91061 l 0,-8.88007 16.554158,0.003 16.554154,0.003 -16.47992,8.90553 c -9.063958,4.89804 -16.500603,8.90668 -16.525877,8.90807 -0.02528,10e-4 -0.05868,-0.0112 -0.07423,-0.028 z"
               id="path4263"
               inkscape:connector-curvature="0" />
          </g>
        </g>
      </g>
    </g>
  </g>
</svg>
