<?xml version="1.0" encoding="UTF-8" standalone="no"?>
<!-- Created with Inkscape (http://www.inkscape.org/) -->

<svg
   xmlns:dc="http://purl.org/dc/elements/1.1/"
   xmlns:cc="http://creativecommons.org/ns#"
   xmlns:rdf="http://www.w3.org/1999/02/22-rdf-syntax-ns#"
   xmlns:svg="http://www.w3.org/2000/svg"
   xmlns="http://www.w3.org/2000/svg"
   xmlns:sodipodi="http://sodipodi.sourceforge.net/DTD/sodipodi-0.dtd"
   xmlns:inkscape="http://www.inkscape.org/namespaces/inkscape"
   width="122.85826mm"
   height="300.53625mm"
   viewBox="0 0 435.32455 1064.8922"
   id="svg5608"
   version="1.1"
   inkscape:version="0.91 r13725"
   sodipodi:docname="flaska.svg">
  <defs
     id="defs5610" />
  <sodipodi:namedview
     id="base"
     pagecolor="#ffffff"
     bordercolor="#666666"
     borderopacity="1.0"
     inkscape:pageopacity="0.0"
     inkscape:pageshadow="2"
     inkscape:zoom="0.49497475"
     inkscape:cx="123.71646"
     inkscape:cy="474.12799"
     inkscape:document-units="px"
     inkscape:current-layer="layer1"
     showgrid="false"
     fit-margin-top="0"
     fit-margin-left="0"
     fit-margin-right="0"
     fit-margin-bottom="0"
     inkscape:window-width="1440"
     inkscape:window-height="797"
     inkscape:window-x="0"
     inkscape:window-y="0"
     inkscape:window-maximized="1" />
  <metadata
     id="metadata5613">
    <rdf:RDF>
      <cc:Work
         rdf:about="">
        <dc:format>image/svg+xml</dc:format>
        <dc:type
           rdf:resource="http://purl.org/dc/dcmitype/StillImage" />
        <dc:title></dc:title>
      </cc:Work>
    </rdf:RDF>
  </metadata>
  <g
     inkscape:label="Vrstva 1"
     inkscape:groupmode="layer"
     id="layer1"
     transform="translate(-260.94141,61.22391)">
    <path
       style="opacity:0.98999999;fill:#e3f0fc;fill-opacity:1;stroke:none;stroke-width:2;stroke-linecap:round;stroke-linejoin:round;stroke-miterlimit:4;stroke-dasharray:none;stroke-dashoffset:0;stroke-opacity:1"
       d="m 432.94526,992.50628 c -3.20581,-1.28698 -3.21884,-1.38133 -0.71815,-5.19785 2.4908,-3.80145 2.48404,-3.86266 -0.30636,-2.77855 -4.94594,1.92157 -5.71349,1.69617 -5.59277,-1.64237 0.0647,-1.78943 -0.25673,-3.04124 -0.71429,-2.78181 -9.19471,5.21324 -19.37384,6.06444 -21.02628,1.75825 -0.38992,-1.01611 -2.19599,-1.43491 -4.38416,-1.01661 -3.23699,0.61879 -3.61678,0.31247 -2.91931,-2.35464 0.94022,-3.59543 -0.18342,-3.8665 -4.01485,-0.96855 -1.52517,1.15358 -4.61587,2.11786 -6.86823,2.14286 -3.40103,0.0377 -3.96854,-0.43887 -3.34803,-2.81171 0.89994,-3.44135 0.63726,-3.4741 -4.89952,-0.61093 -5.15354,2.66501 -8.37155,1.81414 -8.37155,-2.21349 0,-2.48757 -0.39047,-2.67023 -2.6679,-1.24794 -3.3991,2.12277 -7.5672,0.63299 -6.44088,-2.30214 1.06186,-2.76717 0.0567,-2.76047 -5.35049,0.0357 -4.84525,2.50557 -8.90003,0.73826 -7.38205,-3.21754 0.70451,-1.83593 0.34767,-1.9379 -2.13386,-0.60983 -1.63891,0.87709 -5.07925,1.59473 -7.64519,1.59473 -3.6286,0 -4.28439,-0.38096 -2.95105,-1.71429 2.66444,-2.66444 2.01922,-4.26373 -1.05616,-2.61783 -3.4282,1.83472 -4.96468,-0.12271 -3.56296,-4.53917 0.97362,-3.06761 0.91829,-3.08191 -2.71467,-0.7015 -15.66998,6.56145 -2.59622,-12.184 -12.68444,-3.60808 -10.2999,2.8264 -12.26447,-16.14901 -16.82402,-11.8334 -2.34894,2.25043 -4.48731,3.81713 -4.75192,3.48155 -3.36178,-4.26341 -6.53642,-11.495 -5.84139,-13.30622 0.49239,-1.28315 0.16777,-2.30392 -0.73268,-2.30392 -2.54646,0 -4.62966,-6.90753 -3.00099,-9.95073 1.04167,-1.94637 0.85791,-2.82983 -0.71408,-3.43305 -2.71511,-1.04189 -2.72571,-6.6935 -0.0193,-10.27175 2.70241,-3.5729 2.71141,-4.9159 0.033,-4.9159 -11.77718,-56.49372 4.45104,-68.57143 9.56045,-60.35714 -0.24862,-2.16071 -1.05219,-3.92857 -1.78571,-3.92857 -0.73353,0 -1.33369,-0.96429 -1.33369,-2.14286 0,-1.17857 -0.8955,-2.14286 -1.99001,-2.14286 -3.12555,0 -4.00418,-4.36001 -1.61382,-8.00817 2.82315,-4.30867 2.748,-4.73125 -0.68188,-3.83433 -2.17351,0.56839 -2.85714,0.0439 -2.85714,-2.19228 0,-1.6167 0.64285,-3.33676 1.42857,-3.82236 0.78571,-0.4856 1.42857,-1.52576 1.42857,-2.31147 0,-0.78571 -0.6474,-1.02846 -1.43866,-0.53943 -2.27083,1.40344 -3.38226,-3.40957 -1.66015,-7.18918 0.85937,-1.88612 1.002,-3.77572 0.31694,-4.1991 -1.98497,-1.22679 -1.26685,-14.02256 0.98122,-17.4837 1.12581,-1.73332 1.61474,-3.85076 1.08652,-4.70545 -0.52823,-0.85468 -0.1015,-2.59464 0.94829,-3.86657 1.49885,-1.81601 1.52526,-2.44164 0.12298,-2.9136 -2.135,-0.71858 -2.32061,-5.91288 -0.3925,-10.98421 1.20408,-3.16697 1.01014,-3.66443 -1.42857,-3.66443 -1.58157,0 -2.82178,-0.96152 -2.82178,-2.18769 0,-2.97271 4.27933,-4.41983 5.79897,-1.961 0.96277,1.5578 1.59728,1.60957 2.96493,0.24193 1.36764,-1.36764 1.22751,-2.30633 -0.6548,-4.38626 -5.99617,-6.62568 -0.69733,-8.1461 5.55219,-1.59311 119.67215,64.67689 3.78482,6.53709 4.55322,-2.86136 0.28232,-2.49601 -0.2003,-2.98248 -2.29831,-2.3166 -3.39114,1.0763 -6.43078,-2.4927 -5.26125,-6.17754 0.72663,-2.28943 0.35631,-2.66747 -2.00748,-2.04933 -3.39965,0.88903 -5.4998,-2.90218 -3.16564,-5.71467 1.11725,-1.3462 0.78367,-2.28359 -1.26875,-3.56534 -4.05879,-2.53476 -3.41753,-5.6575 1.81527,-8.83975 l 4.59979,-2.7973 -5.31407,0.86236 c -4.48619,0.728 -5.31407,0.46127 -5.31407,-1.71208 0,-1.41593 1.06392,-3.75005 2.36426,-5.18692 2.19998,-2.43094 2.19998,-2.61248 0,-2.61248 -2.76014,0 -3.11498,-2.96358 -0.64998,-5.42858 1.33334,-1.33332 1.33334,-1.71428 0,-1.71428 -2.43698,0 -2.12097,-2.89707 0.64998,-5.95894 2.19998,-2.43095 2.19998,-2.61249 0,-2.61249 -3.26323,0 -2.95782,-2.75547 0.7419,-6.69364 2.45797,-2.61639 2.64179,-3.30636 0.8809,-3.30636 -1.22389,0 -2.56021,-1.28086 -2.9696,-2.84636 -0.98864,-3.78055 2.57457,-15.43547 6.25365,-20.45507 2.69716,-3.67993 2.76135,-4.29338 0.76758,-7.33626 -2.03675,-3.10848 -1.79402,-5.0766 0.62612,-5.0766 0.57517,0 4.26145,3.14872 8.19172,6.99715 3.93028,3.84843 11.8704,9.7217 17.64472,13.05173 5.77431,3.33002 11.86133,7.28604 13.52671,8.79112 2.12057,1.91648 4.1248,2.46125 6.68808,1.8179 2.69841,-0.67725 4.32552,-0.14142 6.19257,2.03908 2.04783,2.3917 3.57011,2.79177 7.95478,2.09064 4.38268,-0.70082 5.42232,-0.42804 5.42232,1.42266 0,1.78121 0.94988,2.09975 4.27716,1.4343 2.35243,-0.47049 6.21529,-0.0526 8.58412,0.92857 2.36883,0.9812 5.90839,1.784 7.8657,1.784 2.06715,0 3.55873,0.8233 3.55873,1.96428 0,2.21906 1.28656,2.46387 3.97696,0.75677 1.01109,-0.64155 1.42328,-2.23434 0.91859,-3.54955 -0.78736,-2.05183 0.25572,-2.4072 7.45161,-2.53877 l 8.36713,-0.15299 -6.42857,-1.35491 c -3.53572,-0.7452 -14.35283,-3.24778 -24.03803,-5.5613 -19.02075,-4.5435 -22.32374,-4.9812 -20.96197,-2.77782 1.29946,2.10259 -6.85658,1.7609 -9.82781,-0.41173 -1.38422,-1.01215 -2.31066,-2.67525 -2.05876,-3.69577 0.29476,-1.19414 -4.12459,-3.46776 -12.39915,-6.37898 -13.93912,-4.9042 -21.47488,-9.44412 -22.84578,-13.76345 -0.52943,-1.66808 -1.69202,-2.43243 -2.95983,-1.94593 -3.21597,1.23409 -6.64185,-2.396 -5.72159,-6.06261 0.66275,-2.6406 0.31229,-3.05741 -2.05102,-2.43939 -3.20962,0.83933 -3.65981,-1.12032 -1.27925,-5.56845 0.94713,-1.76972 0.99833,-2.58163 0.12891,-2.0443 -3.15776,1.9516 -6.28185,-0.85163 -5.47045,-4.90862 0.54015,-2.70073 0.1316,-4.20363 -1.29112,-4.74957 -2.64538,-1.01513 -2.69903,-8.06888 -0.0885,-11.63897 1.72506,-2.35917 1.68774,-2.94834 -0.27778,-4.38557 -2.06801,-1.51216 -2.05462,-1.98986 0.15007,-5.35463 2.86506,-4.37264 3.00918,-5.34704 0.71977,-4.86631 -3.05528,0.64154 -2.86118,-4.528 0.33874,-9.02189 2.90049,-4.07336 2.93423,-4.36191 0.4603,-3.93683 -3.08329,0.5298 -3.32986,-3.49423 -0.91167,-14.87841 1.40934,-6.63482 1.37362,-6.74976 -1.84631,-5.94162 -2.77511,0.69652 -3.16408,0.36757 -2.51234,-2.12468 0.42412,-1.62185 2.31752,-4.49519 4.20755,-6.38522 2.1153,-2.1153 3.09474,-4.32681 2.54766,-5.75245 -1.63889,-4.27089 2.12351,-2.37869 13.44543,6.762 6.18438,4.99292 15.36151,11.02074 20.39363,13.39514 8.99607,4.24477 31.7012,11.95293 41.06082,13.9397 4.39572,0.93308 4.65319,0.79651 3.29228,-1.74639 -2.44395,-4.56655 -4.54447,-5.61215 -20.91808,-10.4127 -8.64285,-2.53398 -20.36764,-6.73248 -26.05507,-9.33 -10.41963,-4.75878 -23.23064,-13.06177 -23.23064,-15.05608 0,-0.59207 -1.92857,-3.00507 -4.28572,-5.36222 -2.35714,-2.35714 -4.28571,-5.58294 -4.28571,-7.16844 0,-1.5855 -0.70059,-3.31571 -1.55687,-3.84491 -0.9275,-0.57323 -1.19853,-2.87229 -0.67045,-5.6872 0.50544,-2.69422 0.25358,-5.11612 -0.58599,-5.635 -2.5404,-1.57005 -1.60622,-8.27193 1.63376,-11.72073 l 3.10616,-3.30636 -3.10616,0 c -2.92649,0 -3.10313,-0.64041 -3.05366,-11.07143 0.0289,-6.08928 0.89242,-15.41071 1.91896,-20.71428 1.55724,-8.04533 1.54854,-9.64286 -0.0525,-9.64286 -3.16444,0 -2.21547,-6.7721 1.29532,-9.24376 2.85845,-2.0124 3.26542,-2.02137 3.67618,-0.081 0.32423,1.53162 2.2402,2.18653 6.42857,2.19737 3.28167,0.009 9.12242,0.9728 12.97944,2.14286 3.85702,1.17007 9.64273,2.06943 12.85714,1.99856 l 5.84439,-0.12886 -4.64286,-1.34057 c -5.17929,-1.49547 -6.17299,-4.81123 -1.78572,-5.95853 1.57143,-0.41094 2.85715,-1.57877 2.85715,-2.59519 0,-1.43735 -0.38096,-1.46707 -1.71429,-0.13371 -2.36905,2.36906 -10.60622,2.14389 -19.63262,-0.53666 -5.61199,-1.66658 -7.16278,-2.66794 -5.97357,-3.85714 0.8834,-0.88344 1.60619,-2.24909 1.60619,-3.0348 0,-0.79366 -0.7619,-0.66667 -1.71428,0.28571 -0.94286,0.94286 -3.50204,1.71429 -5.68707,1.71429 -2.97352,0 -4.13749,-0.80849 -4.62761,-3.21429 -0.36015,-1.76785 -1.09068,-5.14285 -1.62339,-7.5 -1.39532,-6.17404 -1.48238,-13.80331 -0.19834,-17.3816 0.94015,-2.61997 0.67264,-2.98128 -1.74012,-2.35032 -3.4974,0.91458 -5.18891,-4.23533 -3.80829,-11.59463 0.53038,-2.82722 0.29611,-5.26192 -0.55706,-5.78922 -2.50412,-1.54763 -1.62936,-12.6337 1.45025,-18.37958 l 2.92266,-5.45306 -3.1266,0.99234 c -2.96874,0.94225 -3.08953,0.66353 -2.39247,-5.52074 0.40376,-3.5822 2.16007,-9.27964 3.90291,-12.66099 1.74283,-3.38135 2.33996,-5.34434 1.32696,-4.3622 -1.01301,0.98215 -2.3663,1.78572 -3.00732,1.78572 -1.77573,0 0.4272,-35.79562 2.52098,-40.96382 1.54286,-3.80832 1.51279,-4.65978 -0.18764,-5.31231 -3.16192,-1.21334 -2.41943,-9.60504 1.54045,-17.41033 4.44945,-8.77026 4.43895,-9.03181 -0.19164,-4.77684 l -3.76905,3.4633 0.78988,-8.032 c 0.43443,-4.41759 2.20949,-10.84616 3.94457,-14.28572 l 3.15471,-6.25371 -3.74696,3.4633 -3.74696,3.46331 0,-4.35512 c 0,-2.39532 0.96429,-7.0882 2.14286,-10.42863 2.61808,-7.42043 2.64798,-6.86549 -0.35714,-6.62699 -2.1441,0.17017 -2.52931,-1.22521 -2.70584,-9.80158 -0.27865,-13.53758 0.88525,-24.40623 2.91016,-27.17546 1.49501,-2.04454 2.23892,-1.84314 6.91326,1.87156 4.09645,3.25544 4.86456,4.54428 3.52449,5.91394 -1.35182,1.38167 -0.94044,1.40391 1.94897,0.10543 2.86505,-1.28753 5.5089,-1.17493 12.14286,0.51713 4.66421,1.18967 22.90011,4.58627 40.52421,7.54801 23.76536,3.99379 32.19244,4.93917 32.61905,3.65933 0.31637,-0.94912 1.59308,-1.72566 2.83712,-1.72566 5.70803,0 -0.90868,-1.95801 -17.64,-5.22003 -14.81507,-2.88841 -18.83726,-3.23473 -21.43319,-1.84543 -2.06548,1.10542 -5.5746,1.3535 -9.92243,0.7015 -9.53928,-1.4305 -10.86368,-2.13214 -9.87925,-5.23378 0.67396,-2.12347 0.13086,-2.68797 -2.58606,-2.68797 -5.07342,0 -24.02616,-5.07622 -32.39582,-8.67675 -5.78668,-2.48935 -7.1159,-3.66967 -6.45998,-5.7363 0.45422,-1.4311 1.43451,-5.84505 2.17843,-9.80877 3.25679,-17.35258 4.17295,-21.22311 6.79435,-28.70404 1.52752,-4.35923 4.15537,-10.62709 5.83967,-13.92858 1.68429,-3.30149 2.67543,-6.00271 2.20252,-6.00271 -1.3046,0 5.37694,-10.54996 7.50913,-11.8567 1.02523,-0.62832 1.86406,-2.58667 1.86406,-4.35187 0,-3.92361 20.77108,-27.896172 32.50462,-37.514616 11.51272,-9.437431 40.30998,-22.348238 49.84723,-22.348238 1.86807,0 6.00492,1.726181 9.19301,3.83596 4.68814,3.10246 6.52875,3.59098 9.62583,2.554798 l 3.82931,-1.281158 -5.24287,-1.735018 c -5.98297,-1.97994 -9.30649,-5.101567 -6.96935,-6.545996 0.82386,-0.509178 1.49794,-2.173553 1.49794,-3.698611 0,-3.675385 5.41476,-3.684607 11.70405,-0.01993 9.45556,5.509605 37.6188,10.729254 66.15309,12.260514 14.66874,0.78718 16.75983,0.545888 31.42857,-3.626557 9.20697,-2.618876 17.52243,-4.183066 20.0807,-3.777312 5.87547,0.931874 14.9193,4.797042 14.9193,6.376232 0,2.42211 -14.2329,9.009631 -23.88516,11.054945 -15.75595,3.33869 -65.5463,2.338442 -77.84107,-1.563767 -1.71714,-0.545001 -2.55948,-0.07544 -2.55948,1.426776 0,2.805768 -2.3853,2.809797 -13.143,0.0222 -12.20668,-3.163066 -13.52087,-1.772629 -1.74369,1.844844 19.41974,5.964963 26.1982,6.783737 55.60097,6.716084 27.40356,-0.06306 29.03859,-0.227068 40,-4.01253 13.25744,-4.578381 21.71383,-9.232101 29.40942,-16.1846 l 5.48195,-4.952616 7.78585,2.263409 c 20.52642,5.967192 40.30527,17.807527 55.6417,33.309139 22.1639,22.402598 35.92387,49.247048 43.74368,85.339868 l 3.0522,14.08761 -3.27168,4.58314 c -4.78079,6.69718 -15.09615,14.9106 -23.27169,18.5297 -7.60987,3.36869 -31.61953,9.41898 -49.28571,12.4197 -7.14106,1.21296 -26.08426,1.82402 -56.8009,1.83225 -39.01323,0.01 -45.96836,0.32074 -45.31619,2.02161 0.65083,1.69739 -3.17196,1.89156 -24.62769,1.25096 -28.12618,-0.83977 -26.16005,0.59214 4.41216,3.21333 17.27196,1.48085 20.0515,1.4277 21.07606,-0.40309 1.61397,-2.884 32.39246,-3.71631 85.54227,-2.31321 9.30199,0.24555 15.54449,-0.56475 26.68257,-3.46352 21.2678,-5.5351 52.33452,-17.34573 61.32724,-23.31475 4.30303,-2.85619 8.081,-4.93578 8.39549,-4.6213 0.31447,0.31448 1.24709,4.73408 2.07244,9.82134 2.10895,12.99871 1.83696,36.48137 -0.63663,54.96384 -1.1567,8.64286 -2.02691,19.57143 -1.93381,24.28572 l 0.16929,8.57142 1.18532,-9.15218 c 1.93333,-14.92769 4.19198,-14.15563 3.99765,1.36647 -0.19355,15.45849 -1.39016,22.22684 -3.83897,21.71429 -2.07106,-0.43349 -2.16962,7.63024 -0.3274,26.78571 4.98718,51.85703 4.71452,78.58931 -0.91219,89.43173 -1.52007,2.92908 -5.55539,7.63021 -8.96737,10.44694 -5.94213,4.90546 -6.16302,4.97079 -5.24043,1.5499 l 0.9632,-3.57143 -2.50077,3.57143 c -3.998,5.70966 -12.80283,14.28572 -14.66679,14.28572 -1.177,0 -1.40034,-1.41049 -0.71641,-4.52442 l 0.99373,-4.52441 -4.66372,5.31167 c -2.56504,2.92143 -6.46493,6.24313 -8.66641,7.38156 -4.64029,2.39958 -11.28746,2.74692 -11.28746,0.58981 0,-0.81404 -2.39923,0.15024 -5.33161,2.14286 -6.09299,4.14028 -11.81125,4.79537 -11.81125,1.35308 0,-1.76454 -0.97847,-1.44651 -4.39532,1.42857 -4.70158,3.95612 -12.33875,4.96435 -15.2852,2.01789 -1.28833,-1.28833 -2.34169,-1.0822 -4.51346,0.88323 -3.4411,3.11416 -17.60156,5.146 -14.73459,2.11423 3.65723,-3.86745 1.6145,-4.18889 -3.21428,-0.50579 -2.75,2.09753 -5,4.70167 -5,5.78699 0,2.63795 2.34157,2.52028 3.37375,-0.16956 0.92543,-2.41164 8.80745,-2.96373 10.19768,-0.71429 1.35494,2.19235 7.85714,1.72772 7.85714,-0.56144 0,-3.05648 4.66923,-4.22906 6.55746,-1.64674 1.46874,2.00863 2.74018,2.02114 12.65237,0.12457 6.06075,-1.15961 23.72221,-6.35967 39.24768,-11.55567 27.4109,-9.17379 28.3736,-9.38652 33.25276,-7.34787 8.08514,3.37818 11.14687,11.42475 11.14687,29.29527 0,8.74693 0.5697,14.54897 1.42857,14.54897 2.45032,0 1.56146,5.54264 -1.1189,6.97713 -1.615,0.86431 -3.19393,4.49323 -4.31357,9.91401 -0.97137,4.70287 -3.97774,12.95126 -6.68086,18.32976 -5.61297,11.16843 -20.81917,28.4612 -23.96537,27.25389 -1.15444,-0.443 -3.80667,1.09285 -6.1203,3.54415 -13.96223,14.79302 -70.32633,24.13973 -146.67868,24.32336 -21.77559,0.0524 -39.2555,0.63963 -38.84426,1.30503 0.41124,0.6654 7.7812,1.20981 16.37769,1.20981 9.20314,0 15.62997,0.57287 15.62997,1.39322 0,0.90518 1.2838,0.90511 3.66495,-2e-4 2.35728,-0.89623 4.58289,-0.90217 6.23753,-0.0166 1.72093,0.92101 4.09282,0.80297 7.16476,-0.35656 3.97989,-1.50224 4.83669,-1.399 6.42586,0.77433 1.70083,2.32601 2.22065,2.34598 7.17558,0.27568 3.11967,-1.30348 8.69746,-2.11408 13.40805,-1.94855 4.43637,0.1559 13.71788,-0.47188 20.62558,-1.39506 12.31504,-1.64584 16.16306,-1.28217 14.52239,1.37248 -1.25667,2.03336 0.25187,1.60689 5.38363,-1.52194 5.68395,-3.46551 11.8026,-3.88131 10.58934,-0.71963 -1.13284,2.95215 -0.30663,2.72819 6.46327,-1.75191 3.83574,-2.53839 7.92959,-3.9423 11.75509,-4.03123 3.22832,-0.075 7.97785,-1.24154 10.5545,-2.59219 5.52434,-2.89578 8.14452,-2.00527 5.98307,2.03346 -1.81756,3.39614 0.3814,3.67364 3.08577,0.38942 2.46266,-2.9907 12.69306,-10.47612 14.31783,-10.47612 0.66783,0 1.21423,1.04173 1.21423,2.31494 0,1.72336 1.55158,1.05399 6.07142,-2.61924 9.57025,-7.77766 21.61352,-14.9912 23.8074,-14.2599 1.36349,0.4545 1.7236,-0.065 1.12549,-1.6237 -0.48374,-1.26061 -0.2909,-2.65583 0.42854,-3.10046 2.20792,-1.36457 6.75502,2.405 10.24512,8.49329 3.03504,5.29444 3.3099,7.39943 3.18157,24.3665 -0.15686,20.73887 -2.95746,34.06304 -10.44823,49.70846 -4.76466,9.95158 -18.1226,25.81765 -20.85394,24.76954 -0.981,-0.37644 -3.91596,1.51559 -6.52216,4.2045 -2.6062,2.68891 -4.2654,4.88893 -3.68711,4.88893 1.80465,0 12.59511,-5.8371 20.53114,-11.10633 6.5756,-4.36594 8.0656,-4.83134 11.0762,-3.45961 4.55296,2.07445 7.5951,8.1869 9.94463,19.98132 1.0614,5.32812 1.98337,7.78709 2.07605,5.537 0.10586,-2.57097 0.81819,-3.81954 1.95245,-3.42245 1.2687,0.44417 1.66824,3.79757 1.37998,11.5824 -0.45017,12.1577 -2.54694,19.9146 -4.52011,16.72194 -1.31823,-2.13294 -1.96706,-0.62599 -3.63884,8.45144 -20.86318,50.36062 -4.89543,42.96842 -11.11092,41.61309 2.68633,-1.41733 3.65379,-1.20637 6.21549,1.35533 6.26903,6.26903 8.64714,14.6321 8.34998,29.36436 -0.19303,9.56997 0.25412,14.01613 1.48616,14.77757 2.26799,1.4017 1.32767,6.46104 -1.20084,6.46104 -1.19802,0 -2.9149,3.88403 -4.53249,10.25367 -1.43217,5.63952 -4.33417,13.91105 -6.44887,18.38117 -13.10504,19.90181 -11.11987,24.02196 -11.11987,24.02196 9.76714,-6.24796 12.81586,-5.43797 17.80106,4.72942 3.06312,6.2473 3.35984,8.5875 3.13887,24.75664 -0.54079,39.56998 -14.66589,67.20221 -41.46816,81.12204 -12.50781,6.49597 -21.80334,8.97003 -21.87687,5.82266 -0.0303,-1.29406 -0.7394,-1.02754 -2.11962,0.79654 -1.47767,1.9529 -5.42814,3.27494 -13.7366,4.59702 -6.41432,1.02067 -12.16232,1.5468 -12.77332,1.16917 -0.61102,-0.37762 -2.83668,0.0997 -4.9459,1.06074 -3.30013,1.50364 -4.09883,1.38651 -5.72679,-0.83987 -1.81171,-2.47767 -2.02819,-2.46016 -5.11289,0.41367 -3.47601,3.23841 -7.83867,3.9604 -8.67997,1.43649 -0.32603,-0.97809 -2.49463,-0.4002 -5.78631,1.54194 -5.43313,3.20561 -8.21603,2.89971 -8.21603,-0.90313 0,-1.63386 -1.10949,-1.25197 -4.39533,1.51289 -5.23921,4.40851 -8.46181,4.74725 -8.46181,0.88945 0,-2.75221 -0.10372,-2.74778 -5.1325,0.21929 -4.35672,2.57053 -7.96423,3.11051 -23.86669,3.57246 l -18.73418,0.54421 3.50954,-3.78769 3.50954,-3.78767 -7.17611,3.97462 c -5.40383,2.99301 -8.17022,3.72513 -11.20132,2.96437 -2.73158,-0.68559 -3.76831,-1.67972 -3.22587,-3.0933 0.98774,-2.574 0.98422,-2.57393 -5.46996,0.12286 -7.97264,3.33118 -14.00211,0.15524 -9.0696,-4.77728 2.8108,-2.8108 -0.0681,-1.94754 -4.98641,1.49518 -2.52176,1.7652 -4.90109,3.42055 -5.2874,3.67857 -0.38631,0.25801 0.57797,1.20387 2.14286,2.1019 2.66971,1.53204 2.58085,1.69127 -1.44047,2.58097 -6.09652,1.34883 -9.52538,1.29568 -13.26508,-0.20563 l 0,-6e-5 z m 24.88749,-297.78504 c 4.9966,-2.6059 18.3486,-2.98767 16.79897,-0.48031 -0.73824,1.19451 -0.25284,1.32084 1.70142,0.44278 1.50388,-0.6757 6.59148,-1.3306 11.30577,-1.45533 4.71428,-0.12471 10.12958,-0.7242 12.034,-1.33215 2.53454,-0.8091 3.94107,-0.45099 5.24785,1.33614 1.66196,2.27287 2.08736,2.21816 6.15889,-0.79206 3.75661,-2.77738 4.83783,-2.98513 7.6641,-1.47256 2.41753,1.29383 4.34284,1.3609 7.25724,0.25285 2.18173,-0.82949 7.10127,-1.50816 10.93232,-1.50816 3.83105,0 7.26353,-0.48214 7.62773,-1.07143 0.3642,-0.58928 -22.3579,-1.07143 -50.49356,-1.07143 -28.13566,0 -50.88636,0.43586 -50.55713,0.96857 0.32924,0.53273 -0.69643,1.37962 -2.27927,1.88199 -1.58284,0.50237 -2.87789,1.8777 -2.87789,3.05627 0,1.59614 0.82006,1.86187 3.21429,1.04156 5.18714,-1.77723 11.83021,-1.4566 11.42857,0.55161 -0.45297,2.26489 -0.12929,2.24157 4.8367,-0.34834 z m -24.05921,-6.3484 c 1.57052,-1.89577 1.35542,-2.37171 -1.42858,-3.16086 -8.61128,-2.44093 -12.65652,0.26786 -9.16997,6.14045 1.14076,1.92141 2.07359,2.0691 5.07369,0.80324 2.02177,-0.85306 4.50796,-2.55533 5.52486,-3.78283 z m -18.80781,0.33309 c -1.17752,-1.17752 -5.18397,0.70864 -5.18397,2.44051 0,1.05651 0.91352,1.03477 2.9795,-0.0709 1.63872,-0.87701 2.63073,-1.94333 2.20447,-2.3696 l 0,-5e-5 z M 639.21959,584.00141 c -0.15375,-4.32861 -1.38415,-5.48987 -3.01715,-2.84761 -1.07822,1.74458 0.46414,7.13007 2.042,7.13007 0.62,0 1.05882,-1.9271 0.97515,-4.28246 z m -348.64661,-31.5563 c 0.52791,-0.85418 0.33051,-2.18237 -0.43867,-2.95156 -0.9123,-0.91228 -1.66685,-0.37235 -2.17036,1.55305 -0.81115,3.10184 0.96718,4.05507 2.60903,1.39851 z m 220.42806,-78.44696 c 9.72044,0 10.35585,-0.19947 11.67322,-3.66442 1.96063,-5.15685 1.91685,-5.18426 -3.24964,-2.0342 -4.89863,2.98675 -13.92857,3.87017 -13.92857,1.36265 0,-0.98411 -0.99317,-0.94731 -2.96877,0.11 -3.6984,1.97932 -7.03123,0.8211 -7.03123,-2.44348 0,-1.92376 -0.38096,-2.09245 -1.71429,-0.75912 -2.38372,2.38373 -6.85714,2.14749 -6.85714,-0.36213 0,-1.73664 -0.69981,-1.6782 -4.27668,0.35715 -2.35218,1.33845 -4.28075,3.23713 -4.28572,4.21927 -0.006,1.02974 -1.82337,1.78571 -4.29474,1.78571 -4.48596,0 -5.8254,-2.35597 -2.14286,-3.7691 1.17857,-0.45227 2.14286,-2.05574 2.14286,-3.56328 0,-2.5754 -0.25462,-2.60932 -4.21477,-0.56145 -5.21332,2.69592 -17.25567,3.07856 -14.64237,0.46526 3.08328,-3.08328 1.79807,-4.19437 -1.81226,-1.56668 -5.0714,3.69107 -4.44424,5.68948 1.74083,5.54712 2.94643,-0.0678 5.50197,0.51956 5.67898,1.30528 0.17702,0.78571 -2.49711,1.42857 -5.94251,1.42857 -9.06784,0 -9.38176,1.67735 -0.54222,2.89718 17.04045,2.35152 41.81092,2.95367 44.13252,1.07283 1.3647,-1.10561 6.31494,-1.82716 12.53536,-1.82716 z m 31.63787,0.16662 c 0,-0.69407 1.28571,-1.59817 2.85714,-2.00912 1.57143,-0.41094 2.85714,-1.74202 2.85714,-2.95798 0,-1.8104 -0.87435,-1.64056 -4.82743,0.93768 -2.65508,1.73169 -4.54571,3.63066 -4.2014,4.21995 0.86879,1.48693 3.31455,1.34634 3.31455,-0.19053 z m -7.65113,-3.73703 c -0.25773,-4.46679 -1.01052,-4.46693 -5.20602,-10e-4 l -3.35518,3.57142 4.38361,0 c 3.77809,0 4.35516,-0.49318 4.17759,-3.57042 z m -98.06316,0.71327 c 0,-0.78571 -1.28571,-1.42857 -2.85714,-1.42857 -1.57143,0 -2.85714,0.64286 -2.85714,1.42857 0,0.78572 1.28571,1.42857 2.85714,1.42857 1.57143,0 2.85714,-0.64285 2.85714,-1.42857 z m -9.79537,-1.27187 c -2.66386,-1.6879 0.14863,-3.2972 5.18483,-2.96674 6.27018,0.41141 7.09393,0.10785 7.88161,-2.90425 0.8941,-3.41905 0.96617,-3.40658 -4.1792,-0.72308 -5.65648,2.95006 -10.70284,2.86067 -9.54025,-0.16897 0.80332,-2.09346 0.5286,-2.08352 -2.80619,0.10157 -2.89926,1.89966 -4.33369,2.08126 -6.64963,0.8418 -1.62412,-0.86924 -2.95294,-2.22327 -2.95294,-3.00899 0,-0.93505 -0.95459,-0.91768 -2.76323,0.0503 -1.51977,0.81334 -5.12427,1.47881 -8.00998,1.47881 -4.15491,0 -5.06972,-0.46137 -4.396,-2.21705 0.84911,-2.21273 -0.51663,-1.86756 -4.37806,1.1065 -3.47736,2.67825 3.36196,6.77682 13.48309,8.07995 13.31934,1.7149 21.53518,1.85672 19.12595,0.33015 z m -37.34749,-5.06917 c 0,-1.34603 -2.25772,-2.39389 -6.54218,-3.03639 -3.60832,-0.5411 -6.89424,-1.89847 -7.32721,-3.02677 -0.43176,-1.12514 -1.74458,-1.6775 -2.91739,-1.22744 -2.07218,0.79517 -22.35715,-2.81352 -25.00137,-4.44773 -0.72484,-0.44799 -1.00065,-2.02767 -0.6129,-3.51043 0.85113,-3.25473 1.06826,-3.23737 -4.67292,-0.3733 -3.20417,1.59846 -4.09852,2.66703 -2.86846,3.42726 0.98304,0.60754 1.39493,2.12724 0.91531,3.3771 -1.00026,2.60663 -1.64337,2.40078 22.59855,7.23311 20.52439,4.0913 26.42857,4.4453 26.42857,1.58459 z m 31.8425,-237.94467 c -0.41094,-1.57143 -1.79718,-2.8697 -3.08054,-2.88503 -1.28336,-0.0153 -9.40481,-0.97429 -18.04767,-2.131 -8.64286,-1.1567 -15.83505,-2.10843 -15.98264,-2.11496 -0.20932,-0.009 -0.0133,5.29713 0.21522,5.82523 0.20739,0.47934 26.95387,3.83973 31.70511,3.98339 5.2733,0.15942 5.85408,-0.14015 5.19052,-2.67763 z m -91.8425,-63.03207 c 0,-2.52322 -0.35697,-2.7358 -2.12712,-1.2667 -2.15,1.78433 -1.69208,4.29877 0.78286,4.29877 0.73935,0 1.34426,-1.36443 1.34426,-3.03207 z m 282.60532,-14.57246 c 0.43674,-2.26783 0.14327,-2.35189 -2.4836,-0.71138 -3.61892,2.26005 -3.90302,4.41767 -0.49526,3.76139 1.36597,-0.26306 2.70646,-1.63556 2.97886,-3.05001 z"
       id="path6196"
       inkscape:connector-curvature="0"
       sodipodi:nodetypes="csssssssscssssssscsssscccssssssccsssssssssscscssssssssccsssssscsssssssssssssssssscssssssssscsssssssssssssssssssssssssssssssssssssscsssssscsscssssscsssssssssscssssssssscsscccssssssssssssssssssssssssssssscsssssssssssssssscssscssscssssssscssscssssssscssscsssssssssssssssssssssssssssssscssssssssscsssssssssssssssssscsssccsssssccssscsscsssssssssscccsssssscsscccssssssssssssssssssssssscsscccssssscssssssssssscssssssscsssssssssssscssssssssssssccscssssssssscsscsssscsccssssssssss" />
    <path
       style="fill:#000000;fill-opacity:1"
       d="m 402.79883,-49.529297 c -8.82423,4.746382 -16.67164,13.310376 -16.05274,23.976563 -1.46586,21.354691 1.14505,43.020323 -2.30273,64.207031 -2.41188,6.187852 -9.9482,8.083736 -15.34961,10.916015 -27.15768,11.722934 -54.06679,27.668006 -70.44336,52.972658 -23.25648,34.76084 -35.75061,77.12756 -32.76758,119.01758 1.6355,16.91991 5.52784,33.77886 3.37841,50.85062 -1.73213,36.35381 -7.27971,72.58461 -8.31981,108.85641 1.15941,21.17695 6.15975,41.44815 11.76367,61.76562 1.32747,9.48916 -5.68454,17.68476 -5.90354,27.09978 -2.70231,22.68205 -3.035,47.04711 7.18448,68.29338 1.027,5.5383 -3.87043,11.06012 -5.21084,16.59745 -6.868,14.80993 -3.73937,31.45678 -2.80044,47.03512 1.33169,12.73544 6.43267,24.59214 10.41588,36.63443 -9.26886,10.68288 -12.96205,24.89854 -13.07226,38.68555 -0.62601,21.10166 4.38994,41.83094 11.75195,61.4414 1.06358,10.45541 -7.34783,19.18722 -7.02734,29.58985 -0.48847,17.52304 -1.55148,35.59513 1.33203,52.98242 1.50141,8.42723 8.96368,17.53681 3.37049,26.01113 -8.72866,18.37586 -8.29454,39.5715 -6.60291,59.27402 1.65621,18.56684 8.02144,37.18468 21.94726,50.09571 24.75859,24.21677 59.82458,32.80311 92.91055,38.49035 30.53269,5.96691 61.60972,8.32621 92.73594,8.36321 49.88257,0.3291 100.78712,-0.9703 148.52092,-16.43777 24.0729,-8.0953 49.28903,-22.44286 58.60798,-47.50564 7.94899,-23.58317 9.56859,-49.49293 5.84766,-73.97656 -0.85334,-7.73947 -5.69934,-14.62349 -7.43359,-21.74609 5.06658,-16.54163 13.85495,-32.64917 15.15039,-49.58789 1.00446,-17.04655 -4.36956,-33.48403 -11.49024,-48.73243 5.67441,-16.09402 11.60254,-32.57423 10.68946,-49.9375 0.16881,-12.49255 1.02906,-25.83017 -6,-36.875 -2.09051,-6.34867 -9.25072,-12.37587 -4.81377,-19.13916 6.98769,-20.2284 14.76536,-41.89286 10.37431,-63.47998 -3.41035,-13.62429 -12.78788,-27.37004 -7.66601,-41.83984 5.78393,-20.3594 14.51824,-42.18001 8.9707,-63.42773 -2.7544,-10.52137 -10.67459,-18.40622 -17.80664,-26.14649 5.14799,-11.06068 11.50502,-22.29769 10.58789,-34.96094 -0.19299,-41.99643 -4.25756,-84.15762 0.52855,-126.08471 1.38671,-22.79312 4.18383,-45.78712 1.49879,-68.40552 -9.14244,-36.50234 -15.50259,-74.68591 -35.76456,-107.02115 -20.45254,-31.269493 -53.78811,-52.362252 -89.36065,-62.21202 -7.68389,-0.378435 -9.27293,-5.173873 -7.9744,-12.061752 -0.69335,-20.789626 1.60601,-41.8398687 -1.94335,-62.378906 -2.97344,-10.966351 -13.5917,-17.496219 -22.45118,-23.453125 -42.88834,-14.053223 -89.2904,-11.683238 -129.00976,2.253906 z m 118.83789,5.224609 c 9.05291,2.93645 19.54006,10.402596 17.75,21.216797 -2.30314,10.764932 -13.89423,15.4656541 -22.98633,19.3457035 -10.43538,3.75180443 -21.66935,4.62990178 -32.68359,4.453125 17.80245,0.8144078 38.34639,0.9741857 52.02539,-12.3437495 2.73739,-2.971361 7.08209,-0.720304 7.31054,3.039062 2.01442,16.1675683 1.66188,32.671668 0.2168,48.880859 -0.0961,4.954402 -15.15458,12.76399 -20.27965,12.133191 -17.12045,-0.618743 -21.51625,4.266499 -38.54652,4.898059 -2.38389,0.249204 -8.33643,5.723308 -1.7293,5.283185 11.95009,3.702838 28.19197,-5.010747 47.04027,-8.576955 3.85327,3.588775 20.57115,4.14523 15.55426,9.914864 -7.52313,6.682217 -17.9668,9.089133 -27.57421,11.167969 -19.93121,1.982213 -40.08075,0.90639 -60.04688,-0.05664 -5.26604,-0.663004 -12.03138,-2.244942 -16.24414,-3.029297 3.59442,2.492312 -1.16226,5.314486 -3.92383,3.847657 -6.91675,-1.002972 -13.70774,-2.740784 -20.42383,-4.646485 29.85012,11.99327 62.86814,12.515713 94.17774,8.892578 16.56847,-3.833279 33.77851,-11.05582 45.36914,-24.359375 24.26707,6.272153 47.49934,17.883143 64.97773,36.131764 26.20977,26.546116 40.493,62.921246 45.64922,99.385816 -2.75014,8.32808 -10.55024,13.84709 -17.16015,19.125 -14.14156,9.46611 -31.66598,11.61146 -47.87512,15.5041 -30.6348,6.01162 -62.10884,4.55727 -93.15418,4.23418 -7.00886,-0.19909 -14.01663,-0.42824 -21.02149,-0.74219 9.19981,3.61363 -5.86962,4.31125 -9.60738,3.77379 -12.97467,0.0705 -25.94931,-0.48241 -38.87699,-1.57262 16.67085,2.46874 33.26051,4.12505 50.06445,4.37696 -1.9475,-3.24524 3.74356,-4.61051 5.70703,-2.75782 3.29248,-2.09467 9.8479,-0.79297 14.48788,-1.42116 19.06047,-0.19472 38.24675,-1.63275 57.25236,-0.22923 1.26716,3.63736 4.14148,2.37319 7.9515,1.92873 26.85569,-2.45108 52.09658,-12.23795 77.15593,-21.80304 7.36287,-3.00492 13.6523,-7.90945 19.82616,-12.81514 7.11037,25.29849 4.4309,52.0108 0.56836,77.60547 -0.78565,7.7795 -1.11994,15.5473 -1.14453,23.33203 0.69231,-7.11491 0.34335,-14.71677 2.96289,-21.42383 4.14721,-2.87135 4.08146,3.77112 3.69727,6.38477 -0.81385,9.49243 -0.27194,19.39693 -2.64063,28.62109 -1.10136,1.43213 -3.47805,0.7733 -3.82227,-0.94922 0.72407,34.63127 7.79168,69.28708 4.57032,104.01367 -0.86487,9.9802 -5.73319,19.77156 -14.77755,24.71578 -7.28049,6.81723 -6.51343,3.34727 -2.9165,-3.74096 -2.91827,4.83374 -6.85556,12.1907 -12.29228,16.30643 -2.05429,2.22935 -8.45718,3.32639 -7.22266,-1.34375 0.31484,-1.72681 4.13536,-7.82458 1.32813,-3.59375 -4.81971,7.69738 -13.3345,14.32371 -22.7461,13.55665 -2.75241,-0.24484 0.40232,-5.59826 -1.45507,-3.28126 -4.23254,3.91503 -10.54681,9.50576 -16.58594,6.73047 -2.35405,-1.02627 1.70272,-6.76593 -0.48633,-3.84961 -3.8945,5.71883 -11.97323,9.61394 -18.54492,6.57422 -1.79428,-1.04044 0.44007,-5.25117 -1.85938,-2.40625 -5.17538,5.69607 -13.07369,6.02099 -20.2207,5.35352 0.0611,-1.60917 8.41927,-8.82102 1.38772,-3.1172 -1.66327,1.90028 -5.74452,3.31565 -6.70217,4.78126 0.0465,2.55117 -1.29984,3.67122 2.24414,2.56836 -1.79637,-4.41256 5.12694,-4.26767 7.89258,-3.95117 1.80495,0.11328 4.61521,0.82349 4.09765,3.20312 3.2287,-0.72263 7.84412,0.91593 6.53711,-3.40429 2.09504,-2.76974 8.86332,-2.76111 8.48242,1.66406 25.17544,-3.25774 48.51722,-13.29938 72.4043,-21.29883 6.73546,-2.45198 14.68274,-0.16391 18.30469,6.22852 6.67017,9.78395 4.78338,22.59578 4.28711,33.73632 -1.11544,3.56966 -0.16654,3.53389 2.30859,4.79297 2.44094,2.56059 0.98055,9.78795 -3.34961,7.19532 -1.34999,-0.3754 -1.15616,5.46313 -2.07812,7.37304 -2.86162,13.88044 -8.4486,27.42359 -18.45313,37.71485 -4.10242,3.96674 -7.53437,9.69973 -13.17187,11.49804 -2.15301,-0.19404 -2.34623,-3.16904 -3.30274,0.13086 -5.40356,8.67496 -16.42132,11.01275 -25.31445,14.55078 -25.38895,7.29585 -51.93139,9.56657 -78.16797,11.6875 -28.61957,1.59152 -57.68333,2.42094 -86.10937,0.12305 4.91434,3.95211 12.24768,2.03226 18.18359,2.62926 4.9009,0.42645 14.61965,-0.85253 16.56611,0.61859 -3.56129,2.77947 -2.04969,1.56721 0.4085,0.45332 3.23514,-1.59832 8.47533,-1.43727 10.43164,1.13282 3.17768,-2.39187 9.31385,-4.05357 12.07226,-0.46094 0.40641,1.84906 -1.60074,3.47758 1.03711,1.67187 7.20287,-4.49333 15.82485,-3.85206 23.92774,-3.67773 -4.42055,2.84753 2.23558,-0.26959 4.16601,-0.24024 8.49376,-1.08416 17.28152,-2.94952 25.79493,-2.125 3.47005,0.89095 -2.78913,5.96346 1.18554,2.80664 4.25452,-2.29402 9.39128,-7.28714 14.48633,-5.10546 1.7925,1.49992 0.44546,3.93468 -1.04687,5.0957 6.67574,-4.51844 14.11425,-10.40978 22.66992,-9.12109 1.58815,2.92078 4.18439,-1.73993 6.44336,-2.10938 2.37954,-1.77429 8.90455,-3.4646 8.21093,1.45313 -0.49119,2.03947 -5.39924,6.44513 -1.79296,3.24023 5.62275,-4.60129 10.81031,-11.03378 18.05273,-12.86914 2.81836,0.25627 2.48209,3.8594 0.84375,5.34375 7.17159,-8.0829 16.51786,-14.07252 25.86524,-18.92188 2.57386,-2.03009 5.17209,-9.22785 8.08976,-6.31736 12.29216,8.56301 13.50664,24.84329 12.50984,38.46385 -2.10377,22.04951 -7.08513,45.07676 -22.16601,62.15039 -3.2239,3.02873 -5.74326,8.51854 -10.51367,9.01758 -1.70231,0.0703 -1.81797,-3.98208 -2.4961,-0.90625 -1.35836,4.16904 -7.10025,8.33161 -9.23437,9.47656 9.62874,-3.9007 18.29597,-9.86904 26.67383,-15.99219 7.14432,-3.35267 12.83308,4.9199 14.45898,10.88086 1.9681,6.06309 2.58707,12.47126 2.75391,18.81446 0.43458,-2.71268 0.15197,-10.09598 4.66992,-7.69922 2.20549,6.28403 0.44321,13.57281 0.0566,20.13867 -0.97898,3.51277 -0.25242,8.32306 -3.35742,10.8125 -2.89772,0.8403 -2.7229,-5.27942 -3.05274,-0.3086 -2.79719,15.29518 -6.76742,31.51336 -17.18554,43.50196 -1.73176,2.03563 -4.19481,-1.54176 -4.16797,-1.375 -0.60599,10.43354 -11.13316,15.7611 -18.83008,20.77539 -16.88438,9.39054 -36.83124,12.65 -55.2207,15.9082 1.88839,0.23764 1.82537,2.81676 3.60937,0.88086 6.68744,-2.66173 14.01102,-3.15427 20.9668,-4.59766 2.73305,-0.32584 1.3003,5.42506 3.10351,1.52344 3.05844,-5.8379 11.2011,-4.76175 16.44523,-7.4539 7.92248,-4.3516 -5.35305,7.40524 -0.37687,3.16289 3.69716,-2.5114 7.14393,-7.58859 12,-7.14649 2.56271,0.65352 0.31579,4.67165 0.34571,4.55078 1.8992,-2.4576 8.12562,-7.17267 8.93164,-1.52929 0.10805,1.84217 -2.66027,3.97438 0.45312,3.31445 2.77607,2.17669 0.40619,-2.24502 1.86524,-3.83984 0.64026,-1.80767 4.17657,-4.39714 0.60742,-2.39844 -3.45424,2.18872 -6.24028,-2.65403 -2.9961,-4.84766 2.62538,-2.64567 6.50078,-4.89089 9.92383,-5.24219 1.88979,-4.94558 8.75114,-11.18067 13.68946,-6.06445 10.37673,11.07468 10.66988,27.50385 8.38281,41.64844 -2.02041,3.67687 2.7816,1.3159 3.14844,4.47656 1.9439,2.79969 -0.97549,9.03085 -4.33204,5.58008 -0.87626,-0.85691 -0.83364,3.93474 -1.44531,5.09766 -2.93094,15.71103 -9.12189,31.12666 -20.69314,42.50155 -7.68844,8.43411 -17.79107,15.64632 -27.9924,19.59024 12.51105,-4.87325 23.9157,-11.56809 34.84374,-19.08984 6.0388,-2.95072 10.82575,4.42029 13.06055,9.03515 5.24437,14.04239 3.32836,29.56503 1.77149,44.12305 -3.29666,25.42962 -16.68093,51.0897 -40.38624,62.84018 -4.97483,2.58039 -9.96204,5.13647 -15.12548,7.32388 1.57942,-2.69582 -4.01423,0.74388 -5.8125,0.29688 -2.31742,0.5689 -1.55041,-4.65865 -2.4961,-2.27539 -3.03655,6.08032 -11.24205,4.68738 -16.83615,6.16532 -3.91068,-0.23074 -16.69964,4.25314 -11.38846,-1.07938 -2.75018,2.42752 -8.97671,6.54353 -11.46093,1.85351 -0.81559,-1.33131 1.31435,-5.02031 -0.53711,-2.28906 -2.50671,3.54588 -8.71402,8.97546 -12.59766,4.41797 -0.69256,-1.32938 0.76198,-3.6344 -1.11523,-1.35156 -3.13584,3.18433 -9.23398,7.45653 -13.28711,3.5996 -1.47414,-1.34441 1.97917,-5.49371 -0.4336,-2.71679 -2.92794,2.57276 -7.42995,8.45475 -11.65234,5.31445 -2.32316,-1.90932 2.58103,-7.95734 -0.66406,-4.43945 -6.16611,6.05555 -15.87431,7.14855 -24.01367,5.85351 -1.39829,-1.63716 -1.83837,-1.66195 -3.58985,-0.22265 -6.82342,3.02903 -14.65577,0.73414 -21.84179,1.3457 2.54369,-2.29999 9.83913,-8.78559 9.55468,-8.59961 -5.69972,5.07835 -14.46416,11.66969 -22.09375,6.64063 -2.39384,-1.76003 2.65244,-6.13541 -1.06445,-3.43555 -4.39029,2.37747 -11.51386,5.60444 -15.50586,1.14453 -0.94306,-2.73392 1.8548,-4.83666 3.32031,-6.75586 -3.53158,2.95575 -7.15342,6.2078 -11.71875,7.40039 3.15169,-0.63282 8.32591,3.334 3.56641,5.11524 -5.96496,0.32488 -13.04039,1.83407 -18.37891,-1.41797 -1.84154,-2.41293 1.39605,-4.47122 3.6543,-4.23047 -6.72783,1.2817 3.60919,-5.82294 -1.87695,-2.36133 -2.49069,2.09833 -8.55713,2.1452 -7.43555,-2.44531 0.25521,-1.69804 3.72879,-4.95185 0.15599,-2.05319 -5.13533,5.28092 -12.98124,5.50353 -19.45091,2.78756 -8.53303,0.4922 4.23574,-6.47785 -2.50391,-2.89257 -2.58554,2.35545 -8.88397,1.45293 -6.56836,-3.02149 0.14987,-0.78487 2.82613,-3.55544 0.72071,-1.77344 -3.97295,2.71211 -11.067,7.698 -14.95508,2.49024 -1.06938,-1.7607 1.7201,-4.62212 1.6875,-4.875 -3.72622,2.46313 -9.68597,7.251 -13.91407,3.47851 -2.30781,-1.71654 2.16276,-7.0626 -0.73046,-4.66992 -2.39389,2.13429 -9.30689,4.65534 -9.2461,-0.63867 0.24033,-2.08032 3.50989,-5.01668 0.11777,-2.54001 -3.3729,1.93357 -10.11458,5.87998 -12.59433,0.82126 -1.11651,-1.82364 3.08522,-5.34552 -0.44727,-2.99414 -4.47748,2.52528 -9.78882,1.12545 -14.64843,1.47851 2.1883,-2.50572 6.35015,-6.91304 7.66797,-8.5957 -1.94834,3.33267 -10.26677,9.03426 -11.09961,2.25977 0.33444,-1.99458 1.57632,-3.68363 2.79296,-5.24024 -3.63454,2.5659 -9.35702,7.59366 -13.68359,3.91797 -2.10692,-3.36054 1.18561,-7.12598 3.17774,-9.68359 -3.22517,2.57242 -7.91834,8.43914 -12.32813,5.27148 3.71123,-15.1397 -5.36075,0.21969 -9.34375,-6.99023 4.4569,-18.97084 -4.25977,5.03521 -7.97391,-5.76736 -1.96279,-3.08086 -6.52992,-8.07843 -3.24484,-11.4221 -4.57856,0.89681 -5.40174,-5.69385 -5.2793,-8.9707 -0.17973,-2.31866 3.97544,-4.70812 0.0527,-4.33008 -5.05667,-3.45488 -1.75474,-10.9365 1.46093,-14.60547 2.57188,-2.27769 -2.82417,0.5961 -3.51562,-1.93359 -1.85113,-2.84827 0.74123,-6.07255 2.42578,-8.31445 -3.99474,3.31925 0.0912,-9.82652 -0.52136,-13.39687 1.39555,-8.48177 0.32807,-18.51903 5.9491,-25.62852 1.4377,-1.10515 3.5311,-1.63546 1.01757,-3.10743 -2.08869,-2.1144 -8.40633,-0.49519 -6.80273,-5.23242 2.06358,-4.83201 7.97288,-2.946 10.72266,0.0879 7.58541,6.69547 15.00723,13.72391 23.09765,19.72461 1.80537,1.9777 -1.00783,5.16458 -1.66601,5.7168 2.66739,-2.15989 9.65078,-5.94648 10.40039,-0.25 0.24962,1.50859 -2.58332,4.42733 -2.03711,4.25195 2.8257,-3.45154 11.30196,-5.94074 12.39844,0.0762 -0.4819,2.03471 -0.82553,2.00051 1.08984,0.7793 3.37721,-2.30296 12.61781,-1.25778 8.44726,4.23242 -2.45231,2.65977 -0.90703,1.33668 1.34571,0.0254 2.96829,-2.4893 11.14441,-3.20541 10.41797,2.40625 -0.32888,1.43845 -3.00608,3.73727 -0.43555,1.82422 4.43401,-2.31615 10.53104,-5.51154 15.30273,-2.62109 1.6361,1.65197 0.22068,3.88335 -1.17187,5.13477 1.84436,-1.79631 5.42665,-3.1243 7.13672,-3.71485 -2.90034,-4.45383 4.17219,-4.26963 6.95117,-3.78515 4.25313,0.30457 8.49285,0.77725 12.72266,1.31054 -15.73406,-2.80481 -31.32567,-6.40476 -46.7129,-10.72265 3.42825,1.22611 1.12759,5.8593 -2.0664,4.49804 -7.5827,-1.86154 -15.81054,-3.50696 -22.35352,-7.8457 -1.74476,-2.03644 1.5347,-3.92433 2.7168,-3.39453 -10.04304,-4.01301 -21.38546,-6.83075 -29.46875,-14.34375 -1.93532,-1.65175 1.74146,-5.47381 -1.625,-3.35938 -4.49288,1.67839 -8.85188,-4.23824 -5.37305,-7.82812 0.87423,-0.93275 -4.14569,0.74779 -3.72265,-2.22461 -0.56649,-1.40257 2.80139,-4.05976 -0.0977,-2.33594 -5.25259,1.68835 -5.83192,-6.21203 -3.15234,-9.05469 0.47989,-1.40942 4.88069,-6.00185 1.69336,-3.39453 -2.26649,2.69995 -7.59531,1.05938 -5.68555,-2.80273 1.03165,-2.47885 2.80792,-4.5546 4.5332,-6.57617 -2.06515,3.07879 -6.80171,1.25494 -5.92578,-2.5 -0.0682,-2.79794 2.39283,-5.86019 3.24219,-7.63086 -4.69442,0.45185 -3.56624,-6.02602 -1.16797,-8.15625 1.91072,-1.4996 -2.92619,-1.23818 -2.06836,-3.87696 -0.91946,-4.08619 5.08351,-8.35947 5.58203,-9.67773 -4.23525,0.62235 -2.65273,-4.49427 -0.22581,-5.83602 3.15013,-2.25186 -2.58743,-0.0544 -2.63356,-3.06242 -1.02905,-4.68345 2.37931,-10.93293 3.43359,-13.92187 -2.11512,3.3312 -7.7392,1.02649 -6.00586,-2.85938 0.41896,-4.01413 7.61375,-6.03648 7.6875,-0.90429 -0.83245,3.30881 1.3645,-1.70542 2.94531,-1.82422 -3.22413,-1.53891 -7.30084,-7.2112 -3.27734,-9.85352 5.22874,-0.2295 7.27592,6.45427 11.24219,8.85742 15.55591,12.52747 34.32964,21.61848 53.71679,25.91797 0.91276,-7.52466 -8.71113,-7.93271 -13.5039,-10.21484 -13.69273,-4.77007 -28.01123,-9.19819 -39.91992,-17.69336 -2.53422,-1.52945 -0.92348,-5.25782 0.0391,-6.29102 -3.82432,2.74417 -10.08915,-0.50318 -8.3711,-5.42969 0.0137,-1.25461 2.55674,-3.83125 -0.01,-2.28906 -3.67778,2.13079 -7.61173,-2.13906 -5.25781,-5.64062 0.78269,-1.98644 3.12458,-3.58259 -0.13672,-2.99414 -5.47998,-1.32488 -3.62109,-9.38874 1.18945,-10.42774 0.9461,0.0705 6.02945,-3.57775 3.2461,-1.92383 -2.73416,1.79991 -9.42474,4.42869 -10.03516,-0.7207 0.23558,-3.35243 3.12283,-6.00128 5.03516,-8.28711 -2.77586,1.99016 -6.62938,-1.14227 -3.88672,-3.90625 0.85752,-1.61294 3.76634,-3.42361 0.44922,-3.02929 -3.87612,-2.90761 1.83661,-6.92802 3.56835,-8.85938 -3.12888,2.36412 -6.88894,-1.72943 -3.84179,-4.45312 1.2571,-1.76661 3.79022,-3.70044 4.92773,-4.70118 -2.54669,1.22236 -4.63164,-1.62729 -4.07422,-3.99804 -3.46133,2.51967 1.21912,-8.74058 1.10352,-11.79883 1.12856,-4.97181 4.22183,-9.37823 7.85937,-12.65235 -2.25533,-2.16658 -6.89437,-7.17283 -2.33398,-9.3496 6.59756,1.4798 9.44831,9.25963 15.02589,12.63868 8.07517,7.36802 18.90855,10.63783 27.31395,17.39256 1.41805,1.24458 0.0601,4.24942 2.46875,2.15821 3.97336,-2.46886 11.67009,-0.61506 10.78907,5.00781 3.55802,-1.36675 10.49594,-4.75763 12.47656,0.38477 0.17482,1.69414 -1.66748,3.14763 0.74023,1.28906 7.16116,-4.27533 14.36719,4.01736 21.59571,2.29883 3.10196,-0.39958 0.8482,5.1543 2.7832,2.98437 1.36302,-1.37794 5.76167,-1.5271 2.26367,-2.65625 -2.87797,-3.63295 3.00147,-4.69738 5.58008,-4.00976 3.51282,0.16887 7.01549,0.51153 10.50976,0.90234 -16.79044,-2.69468 -36.00848,-7.69953 -50.76757,-11.41992 2.53515,4.07723 -3.75918,4.63363 -6.27735,3.35351 -2.92703,-0.47551 -10.11979,-3.07297 -5.85547,-6.5625 3.85571,-0.43511 -3.7693,-1.4612 -4.68068,-2.26897 -10.21158,-4.02103 -22.15615,-6.12067 -30.11033,-14.19978 -1.46032,-1.23481 -1.3647,-4.38079 -1.77344,-5.1582 -4.67839,3.61597 -12.50581,-3.7461 -7.47266,-8.11133 1.65033,-1.78472 -2.5065,1.55996 -3.77539,0.66016 -4.92646,-1.20502 0.22456,-7.40722 0.73633,-8.0918 -4.54647,3.091 -9.94183,-3.55241 -6.20117,-7.48633 1.46603,-1.99342 1.74794,-2.02775 -0.56055,-1.33398 -4.72618,-0.64779 -3.69652,-7.39306 -2.53125,-10.66406 0.75377,-2.2174 3.18129,-4.84895 3.98828,-6.03907 -3.47689,1.89004 -5.67164,-2.8556 -3.25586,-5.28711 1.07142,-1.90072 2.73166,-3.80184 3.9629,-5.2832 -3.019,2.40356 -7.35817,-0.85314 -5.34375,-4.33789 1.30045,-3.33788 3.58087,-6.17479 5.83398,-8.91601 -2.6888,3.18842 -7.30136,-0.54616 -4.70703,-3.7754 -2.77795,1.22519 1.57084,-7.79554 1.79687,-11.10937 0.71061,-2.1325 0.40321,-4.46877 1.20313,-6.55859 -1.29694,2.74404 -6.66023,4.00759 -6.25195,-0.30078 1.13231,-4.17056 3.84166,-9.65339 8.54882,-10.28321 1.28996,0.2699 -2.61237,-2.17628 -2.53125,-3.92187 -0.21385,-4.48525 5.0708,-2.56124 6.82227,-0.41211 9.30866,8.40452 18.93786,16.69606 30.66797,21.59179 13.56861,6.24052 27.97616,10.71088 42.58789,13.65821 -0.97261,-7.42379 -10.33018,-7.60002 -15.78052,-9.83051 -18.53166,-5.40941 -38.32475,-10.71762 -53.1394,-23.76129 -1.70877,-1.18216 -2.30537,-4.21226 -2.32617,-5.37109 -4.23995,1.26476 -5.97082,-4.77619 -8.04297,-7.44532 -1.79592,-1.47888 -0.34476,-4.63663 0,-5.11132 -5.39748,-0.84785 -2.15186,-8.83949 -0.61329,-10.67578 -5.71622,-1.04201 -5.10474,-9.46805 -1.85351,-12.83985 0.75492,-1.68419 5.82267,-5.35444 2.0625,-3.38476 -5.21632,1.16837 -4.98765,-6.01549 -4.11328,-9.33399 -0.77212,-3.41155 -0.73743,-10.33326 0.63813,-15.1663 0.83502,-5.58772 1.95721,-12.67684 3.14116,-17.50557 -4.0589,2.58351 -5.24318,-3.97279 -3.28515,-6.5 0.82381,-4.21604 9.69393,-8.39168 8.69531,-1.54102 -0.37251,1.36952 3.24707,-0.93384 4.66016,-0.48047 7.50631,-0.62694 13.92322,4.40344 21.42726,4.357 2.93022,0.35667 8.3179,0.93087 10.15282,1.14691 -3.33896,-1.47088 -9.79485,-0.95539 -10.44141,-5.48633 0.99906,-3.26361 5.48008,-0.2523 6.35547,-3.86719 3.17079,-3.159 -2.10059,1.23487 -3.86328,1.17774 -8.70043,1.96031 -17.1771,-2.65361 -25.51563,-4.33203 1.70278,-2.27482 7.02812,-8.08482 2.40821,-3.73243 -2.87731,3.15054 -8.23784,1.8929 -10.69336,-0.84765 -0.23819,-3.62962 0.38612,-7.09649 -1.48478,-10.62372 -3.16185,-5.78783 -1.49627,-14.35097 0.58829,-18.7298 -1.7225,3.354 -6.11566,1.31688 -6.18359,-2.01562 -1.75017,-4.56362 -0.73256,-10.4614 1.375,-14.10938 -5.08874,-0.51142 -3.94111,-7.5494 -3.60156,-11.14844 0.39676,-6.2399 4.16551,-11.26597 7.58984,-16.1914 -1.46905,2.37369 -5.55681,8.75822 -7.67969,3.7539 -0.33485,-8.4096 2.2078,-16.86408 7.14649,-23.6914 -5.78031,7.65798 -6.54417,3.56587 -5.75391,-4.17188 -0.15664,-6.39369 3.34389,-12.09392 1.96484,-18.61718 0.0994,-6.15676 -1.01067,-14.75166 3.53125,-19.14454 -4.89427,0.32867 -3.22588,-6.47552 -3.50586,-9.45703 0.18539,-6.38608 3.49876,-12.11548 7.11328,-17.17968 -3.66214,4.14012 -8.81152,12.30057 -7.08449,1.8379 -1.20154,-8.50605 2.38766,-16.55403 7.02199,-23.43361 -3.62125,4.2781 -8.57148,12.29728 -6.9579,1.83211 -0.89347,-6.3695 1.88232,-12.37706 4.78212,-17.84578 -1.62595,2.97373 -6.14317,2.60384 -6.26953,-1.125 -0.82866,-5.11719 -1.17107,-10.97937 1.97852,-15.42187 -6.56513,8.46688 -1.56744,-5.31377 -1.68297,-9.25504 1.35341,-4.11009 0.10943,-10.05457 3.58922,-12.96957 5.10707,0.62384 8.37059,5.8648 12.5625,8.36328 -2.74467,2.67762 -6.52373,5.96847 -1.66797,2.22851 6.12413,-4.90957 13.25868,1.12657 19.75689,1.44146 21.89106,4.04498 43.91533,7.36072 65.84467,11.20307 -0.6221,-2.78841 2.85713,-3.81892 5.00586,-3.75781 -12.75961,-1.63233 -25.99197,-5.21034 -38.11328,-7.23437 -0.35596,4.34429 -6.55036,2.21593 -9.62891,2.74218 -4.64668,-0.62591 -11.55654,0.0107 -14.23437,-4.56054 -0.86125,-2.87738 5.87723,-2.54976 0.50586,-3.0293 -13.5781,-2.24995 -27.18532,-5.28909 -39.52539,-11.60547 -6.02809,7.06769 -0.53384,-5.08497 -0.33008,-8.41601 1.78046,-4.77097 -0.28294,-11.61204 3.99414,-14.99414 -1.57773,-5.46518 2.0493,-11.23918 3.12388,-16.59472 2.6694,-7.52301 4.86849,-15.53623 9.798,-21.95997 -4.4667,1.00017 3.35043,-7.33117 4.08789,-10.20703 0.7331,-2.22664 4.58772,-3.87185 4.38671,-5.58399 -1.18333,-4.97489 4.5887,-8.64304 6.9206,-12.48471 10.85449,-12.038506 21.62931,-24.694992 35.29034,-33.630521 12.73519,-6.529144 25.98319,-12.714259 40.02149,-15.757812 6.69765,0.302658 12.66901,6.878593 17.85547,8.615234 -0.6392,-3.520262 7.77477,-0.859645 2.6621,-2.447266 -3.52112,-1.929967 -10.38972,-2.093014 -10.91015,-6.982422 -0.0502,-2.925737 5.0228,-2.337565 2.70703,-5.445312 -1.7203,-3.457424 6.07835,-3.43874 9.35702,-1.957823 9.40731,8.689851 51.27301,13.349281 67.78149,14.186786 8.5092,0.431688 -1.11288,-5.970686 3.90239,-5.446543 -15.98882,-2.644522 -64.63256,-6.333839 -80.08387,-17.012889 -5.4152,-8.793966 -4.93855,-19.895773 -5.88867,-29.857422 -0.44483,-9.9800745 0.17727,-20.0994449 3.43945,-29.61914 13.74694,12.3939615 32.67743,13.6640912 50.02785,16.4062215 3.96956,0.5256438 12.11008,1.6097657 4.30545,0.3856318 -16.08213,-3.3776048 -33.25623,-5.6339468 -47.31181,-14.7527913 -5.92651,-3.362131 -9.11763,-13.812971 -2,-17.601562 39.04158,-14.305608 87.25314,-14.779864 117.35188,-9.566458 z m -94.0293,65.808594 c -0.002,3.760596 0.51551,9.042174 0.14063,2.265625 -0.0468,-0.738516 -0.078,-1.581147 -0.14063,-2.265625 z m 39.44727,10.566406 c -0.026,3.346624 0.60245,10.114011 0.20424,2.797923 -0.032,-0.166121 -0.24427,-6.528303 -0.20424,-2.797923 z m 107.23437,87.468748 c 1.66013,0.25608 7.00141,4.69361 3.15039,1.60547 -0.0523,-0.43156 -5.11447,-2.42119 -3.15039,-1.60547 z m 37.84375,27.03125 c -0.26649,2.49877 -2.46698,4.51882 -4.98242,4.55664 3.86334,1.71743 5.72845,-2.20549 4.98242,-4.55664 z m -282.76953,15.58203 c -0.92073,0.95496 -5.53973,2.60346 -2.19531,3.27539 1.46443,0.7956 3.10663,2.89451 2.08398,-0.0234 -0.75597,-1.00884 1.77287,-4.65747 0.11133,-3.25196 z m 303.2461,27.88477 c -1.85598,0.17383 -3.97797,-0.0884 -0.70899,0.0977 0.0332,0.0482 1.51583,-0.23701 0.70899,-0.0977 z m -248.97657,30.30273 c 2.16957,0.37777 3.26422,3.55431 1.08594,4.70704 12.92573,2.10292 27.43618,3.62269 39.72266,4.74023 -2.76717,0.2883 -6.44766,-3.21919 -2.80079,-4.92969 -12.64939,-1.20891 -25.68999,-2.71697 -38.00781,-4.51758 z m -35.20508,226.24414 c -2.92864,2.62423 -6.56039,4.9384 -10.65234,4.70508 3.37633,0.011 7.45099,5.34213 2.34961,6.16016 -3.03644,0.0728 4.89233,0.99153 6.25,1.51758 14.17162,3.02613 28.95331,6.60741 43.0625,7.59375 -1.49874,-1.77804 1.48616,-4.22281 -1.93164,-3.51563 -4.08011,-1.09377 -9.62746,-0.33532 -12.57422,-3.65234 0.075,-2.12569 1.08854,-2.80142 -1.08789,-1.32813 -5.4597,2.65885 -11.12401,-2.10475 -16.76758,-1.76367 -3.6593,-1.30385 -10.08994,-0.68743 -11.29297,-5.25586 -0.0139,-1.825 1.92599,-3.55667 2.64453,-4.46094 z m 20.79493,1.5293 c -5.21153,4.75618 1.92155,-1.49385 0.38944,-0.34018 z m 30.36914,10.33399 c -1.9147,1.72793 -3.94494,3.50654 -6.45899,4.27929 2.10509,0.76671 5.61213,2.05507 4.80274,4.92578 12.50955,1.214 27.33559,3.32496 38.5332,4.07618 -1.29795,-2.48012 -4.72498,0.32958 -7.26367,-0.66993 -3.6279,1.01749 -5.84703,-4.28937 -1.62696,-4.88476 2.96719,-1.03555 6.85153,-0.12313 8.98633,0.97461 1.64785,-1.29286 4.20913,-0.70243 3.00196,-3.32813 0.20297,-1.60544 1.69226,-3.52772 -0.56055,-1.18359 -3.97887,3.91173 -9.82378,2.94328 -14.85742,2.94922 1.34071,-2.4544 4.82319,-7.48663 1.03515,-2.89453 -2.52039,3.93649 -11.39154,4.25812 -11.27929,-1.54493 1.14501,-2.83405 -2.65641,1.45784 -4.03321,1.3125 -4.48191,2.04786 -9.53355,0.84171 -14.27148,1.16016 1.15315,-1.49658 3.69796,-4.61908 3.99219,-5.17187 z m 57.47656,3.29101 c -1.8114,2.25157 -5.9238,4.12559 -7.15625,5.40625 1.24233,1.77093 1.12259,2.28992 3.08398,1.02735 3.25441,-0.49704 10.20817,-1.66942 10.16993,3.14648 -2.77689,2.75824 -7.75496,1.76016 -11.2754,1.04883 -0.91208,-2.95689 -3.26634,1.1085 -5.05664,0.76758 16.70187,2.06346 33.64333,3.91652 50.28516,3.81835 -0.46565,-4.3131 6.20178,-2.67507 9.04297,-3.34765 5.12989,-0.56696 12.62074,0.0806 16.19336,-1.12305 -1.36544,-2.49343 1.00646,-5.45731 2.06055,-7.24023 -4.49725,5.53911 -11.7379,7.30071 -18.59375,6.23828 -4.20068,0.77895 3.19743,-5.57342 -1.61524,-1.66992 -2.78903,2.63758 -10.46596,2.58617 -9.64648,-2.6211 0.48874,-1.74195 1.09612,-2.66268 -0.3711,-0.71484 -1.96148,4.0875 -10.58695,4.01934 -8.07422,-1.75195 -1.66093,2.11219 -5.048,3.56847 -6.68554,4.7207 0.71168,5.02851 -6.75818,3.82039 -9.94141,3 -3.40163,-2.56411 1.53225,-5.1143 3.89063,-4.76172 -1.3179,-1.608 1.7523,-6.04268 -0.80469,-3.53711 -5.51434,4.74466 -13.19329,3.1983 -19.82031,3.40625 0.96679,-1.38179 4.82017,-6.10465 4.31445,-5.8125 z m 77.39258,5.71094 c -2.07365,2.00509 -4.24178,3.97162 -6.77149,5.38867 2.22075,-0.19205 7.0542,0.34103 7.82617,0.0352 -2.42587,-1.11095 -1.93463,-4.346 -0.44531,-6.03516 l -0.60937,0.61133 z M 547.5,467.95117 c -2.42115,2.34831 -5.13431,4.93725 -8.59375,5.48047 2.06496,-0.19285 2.59869,3.40381 3.00195,0.23633 1.09493,-2.41399 5.25412,-1.78377 6.04883,-2.74609 -0.57641,-0.78078 0.18053,-3.56596 -0.45703,-2.97071 z m -6.03125,8.48242 c 0.63814,0.35748 -0.0809,-1.01034 0,0 z m -251.78711,36.33203 c -2.80541,2.63885 1.27951,-1.06032 0,0 z m -1.38281,36.10352 c 1.18188,1.43065 0.15705,3.56566 -0.44922,4.81445 2.52328,-2.28326 4.40097,-3.512 0.44922,-4.81445 z m 372.11133,7.27539 c 3.80778,-0.17003 0.86517,-3.4407 0,0 z m -21.29102,24.11719 c -1.5423,1.08142 -4.41217,0.90652 -2.91797,3.7168 0.15486,1.46585 4.42249,6.60931 2.4535,2.59287 -1.62371,-2.78974 -1.35657,-5.32484 0.46447,-6.30967 z m -161.25976,15.29297 c 1.91185,-1.4573 3.08105,-2.53375 0,0 z m -190.56446,53.79883 c 4.49611,1.97861 -1.63298,6.50149 -2.33008,9.48242 -2.71682,3.12735 -2.47798,10.21297 -7.4082,10.48633 -2.65465,-3.69179 0.40043,-8.85455 1.95313,-12.57227 1.81511,-2.86707 4.18384,-6.9364 7.78515,-7.39648 z m 134.61524,35.12304 c 4.03013,0.54414 2.06683,5.72348 -1.53321,4.625 2.10356,0.24595 5.14329,1.77285 4.06055,4.36133 2.39787,-1.99278 6.67616,-2.74032 8.61133,-4.1875 -1.73803,-2.8188 5.92414,-3.31997 1.08925,-3.36111 -3.9416,-0.40043 -9.11898,-1.08926 -12.22792,-1.43772 z m 21.54492,2.46289 c 2.88638,3.06683 -2.21581,4.78102 -4.44727,4.33203 1.95751,1.88585 -3.35317,6.01461 0.3125,3.60352 4.21379,-1.84572 10.40095,-5.48216 14.51367,-1.89648 1.43448,1.61229 -1.95399,5.04329 1.10743,2.5332 7.02729,-5.16447 16.04182,-3.92345 24.18554,-3.84961 -2.71259,2.32874 -6.81365,5.35353 -1.72113,2.312 5.85461,-3.76041 12.88504,-1.10574 19.08051,-1.24169 2.5459,-1.64707 8.98735,-4.47328 9.41992,0.53516 -0.72069,2.25589 -0.88548,2.61931 1.2832,0.95312 2.85754,-2.97359 6.58241,-5.46954 10.97657,-4.59179 1.63868,-0.15605 3.0164,1.5537 3.16015,2.63867 6.5779,-4.93133 15.69258,-0.86529 22.45899,-3.82031 4.82074,-2.34331 -1.84106,-0.80678 -4.0093,-0.94196 -32.12136,2.06819 -64.41444,2.41138 -96.48484,-0.67133 z m -33.31446,4.54493 c -1.97788,1.62989 2.94334,-1.79707 4.26368,-1.94141 4.44015,-0.6242 -2.32129,-1.42516 -2.66443,0.58605 z m 167.41016,93.02148 c -7.07487,1.19652 -16.12377,2.27697 -22.15234,3.16016 3.98599,1.54795 1.21305,6.52087 -0.57227,8.75781 3.66056,-3.33557 6.50101,-9.7892 12.06836,-9.88672 2.4759,0.92844 1.97072,4.14098 0.7793,5.91992 3.37787,-3.01757 6.76205,-6.27267 10.95312,-8.12305 l -0.98748,0.15772 -0.0887,0.0142 z m -24.65625,3.33594 c -2.54498,0.47742 -7.93122,0.38671 -8.82226,1.10156 1.73149,0.86534 1.64748,3.45264 0.59765,4.54297 2.44505,-2.19097 5.25306,-4.55004 8.22461,-5.64453 z m -96.10156,1.00781 c 3.71077,4.31246 10.29136,2.43438 15.43555,2.89062 4.07376,-0.37138 9.16963,0.21219 7.7539,0.94336 9.86724,-2.00507 20.45816,0.89533 30.04297,-2.20117 -17.69056,0.41975 -35.92409,0.0619 -53.23242,-1.63281 z m 79.2832,0.44141 c -1.31838,0.10249 -14.1845,0.84901 -9.25586,0.67773 2.59305,0.4303 2.64438,3.74042 0.93555,5.23047 3.25538,-2.57505 6.89377,-4.72161 10.82226,-6.08984 -0.83398,0.0605 -1.66796,0.12109 -2.50195,0.18164 z m -17.5625,0.93359 c -3.06943,0.40578 -5.78708,-0.98523 -4.49023,2.54297 -0.27046,1.59239 -3.63519,4.5817 -0.66406,2.13672 2.65368,-1.95247 5.45056,-3.85249 8.63085,-4.82227 -1.15885,0.0475 -2.3177,0.0951 -3.47656,0.14258 z m -232.80469,60.98828 c 4.60662,1.47611 0.60851,7.08429 -1.13476,9.49414 -1.08415,3.0266 -6.84651,4.61067 -6.40234,0.0449 1.13776,-3.53797 3.48249,-8.80245 7.5371,-9.53906 z m 130.73633,33.92188 c 3.02514,-0.0507 6.22936,2.32753 5.02539,5.15429 1.33084,-0.21727 0.10518,-3.5938 2.76953,-3.51172 5.87438,-0.60018 -2.93007,-0.79135 -5.01757,-1.3164 -0.11386,0.0181 -4.83254,-0.70468 -2.77735,-0.32617 z m 19.6543,2.22656 c 3.0079,3.79363 -3.3406,4.5622 -5.9101,4.13152 -2.51488,-0.64847 0.29386,2.16007 -1.22076,3.42121 8.85086,-6.32315 20.05129,0.86551 29.53516,-2.73633 2.87029,-0.5629 7.48142,-0.68166 8.30078,2.91407 5.53335,-4.66993 13.21443,-2.76701 19.7832,-3.12696 -1.5215,1.47279 -8.83272,7.25191 -3.2793,3.35938 6.54461,-5.13898 15.12174,-2.00105 22.41211,-2.375 5.47995,-2.00496 11.42066,-1.99537 17.16407,-2.51367 -28.89429,-0.61128 -57.98926,-0.0812 -86.78516,-3.07422 z m -39.12695,0.92578 c 1.39617,1.3189 0.94724,3.52259 -0.14844,4.87891 2.14487,-1.59428 4.39427,-3.185 6.99219,-3.93555 -2.27346,-0.32121 -4.59827,-0.65028 -6.84375,-0.94336 z m 16.03711,2.3457 c 2.15622,0.99496 -0.4104,5.08035 2.11328,2.36524 3.04823,-1.43293 2.90696,-2.00079 -1.04907,-2.23173 2.41522,1.14612 -1.72443,-0.52527 -1.06421,-0.13351 z m -120.55469,37.91211 c -5.04974,5.38741 3.66238,-3.83809 0,0 z m 288.90039,36.62696 c -1.46216,1.99229 -5.49161,2.0767 -4.34961,5.01953 -0.20206,1.9285 -2.45511,5.2423 0.006,2.01757 3.42077,-3.75948 9.17132,-10.12536 14.65625,-6.36328 1.70087,1.60058 -0.72408,5.54881 1.92187,1.6875 5.96962,-8.85491 11.25042,-3.13769 11.3711,-3.31445 26.33607,-21.37625 -14.97633,-1.79101 -23.60561,0.95313 z m -8.08789,-0.68555 c -1.76867,3.12661 -7.03869,4.17182 -8.83594,5.3457 2.23845,0.83327 -0.34477,5.93262 1.87695,2.69727 1.8,-2.3621 4.95139,-4.33772 6.85157,-5.91211 -0.18966,-0.68945 -0.071,-1.48035 0.10742,-2.13086 z m -15.80469,2.92773 c -2.20895,2.15474 -7.91781,2.644 -8.84375,3.36328 2.00894,0.32044 3.08635,2.65771 2.24805,4.45508 1.74839,-2.56913 5.19674,-4.83825 7.30859,-6.15039 -0.45074,-0.40945 -0.61296,-1.27278 -0.71289,-1.66797 z m -12.80859,3.81641 c -4.82244,-0.10112 -2.43603,1.50857 -0.90625,0.74219 8.6e-4,-0.19337 1.89436,-0.97318 0.90625,-0.74219 z m -176.01758,7.46094 c 3.42081,-0.98868 7.35608,3.96995 2.72656,5.16992 -2.81972,0.9099 -10.10313,0.22391 -6.94336,-4.0918 1.19492,-0.8751 2.77813,-1.06045 4.2168,-1.07812 z m 11.50586,1.95898 c 1.99021,0.052 4.96958,0.32918 5.25976,2.83008 10.29583,-2.0661 21.5386,0.64469 30.47071,4.36523 3.14936,-1.80552 9.51708,-2.52544 10.83398,1.67383 -1.78586,3.63888 -7.33757,2.53661 -10.55664,1.5918 -1.07202,-4.72898 -6.45004,0.25755 -10.32607,-1.25173 -7.23303,0.13628 -14.79673,-1.74505 -20.91416,-5.05882 -2.98417,1.79663 -7.82471,1.90207 -10.63086,-0.20117 -1.52639,-3.64001 3.62683,-3.92396 5.86328,-3.94922 z m 1.02539,3.63477 c 5.20371,0.84347 -0.86697,-3.6352 0,0 z m 35.02734,4.20117 c 3.48801,3.35895 3.93036,-2.41732 0,0 z"
       id="path6178"
       inkscape:connector-curvature="0"
       sodipodi:nodetypes="cccccccccccccccccccccccccccccccccccccccccccccccccccccccccccccccccccccccccccccccccccccccccccccccccccccccccccccccccccccccccccccccccccccccccccccccccccccccccccccccccccccccccccccccccccccccccccccccccccccccccccccccccccccccccccccccccccccccccccccccccccccccccccccccccccccccccccccccccccccccccccccccccccccccccccccccccccccccccccccccccccccccccccccccccccccccccccccccccccccccccccccccccccccccccccccccccccccccccccccccccccscccccccccccccccccccccccccccccccccccccccccccccccccccccccccccccccccccccccccccccccccccccccccccccccccccccccccccccccccccccccccccccccccccccccccccccccccccccccccccccccccccccccccccccccccccccccccccccccccccccccccccccccccccccccccccccccccccccccccccc" />
    <path
       style="opacity:0.98999999;fill:#475abb;fill-opacity:1;stroke:#000000;stroke-width:2;stroke-linecap:round;stroke-linejoin:round;stroke-miterlimit:4;stroke-dasharray:none;stroke-dashoffset:0;stroke-opacity:1"
       d="M 479.03388,56.745748 C 477.48093,56.150157 467.85319,54.59407 457.63891,53.287777 435.41823,50.446 415.57093,46.094284 407.35144,42.261754 398.94725,38.3431 397.66271,33.844391 397.64956,8.2838684 c -0.006,-11.3928572 0.45819,-21.8572074 1.03122,-23.2541114 0.96736,-2.35817 1.42715,-2.292409 6.42858,0.919441 6.8857,4.4219146 16.42296,7.4145475 32.35953,10.1538818 19.01449,3.26839712 22.2516,2.3970386 5.17002,-1.3916515 C 420.196,-10.2664 405.56431,-16.249976 402.68667,-21.626882 c -2.02946,-3.792081 -1.85214,-9.427518 0.35426,-11.258665 3.25191,-2.698847 26.2615,-8.661637 42.76153,-11.08138 12.02709,-1.763783 23.07819,-2.217557 43.98496,-1.806084 26.83695,0.528185 28.22655,0.698486 35.75517,4.381896 27.17935,13.297612 9.23108,37.3700919 -30.72795,41.21279764 -10.84885,1.04329285 -10.58337,1.08341714 4.96712,0.75072571 17.40667,-0.37240428 26.76968,-3.04147715 33.78334,-9.63047005 1.70755,-1.6041603 4.28698,-2.6924113 5.73208,-2.4183383 2.20758,0.418688 2.82768,2.5828883 3.88054,13.5435098 0.6892,7.1748557 0.78752,19.2552572 0.21846,26.8453382 l -1.03463,13.800146 -5.41219,3.58161 c -4.06354,2.689124 -9.10168,4.080844 -20.21845,5.585083 -8.14346,1.10191 -19.32141,2.891297 -24.83988,3.976414 -5.51848,1.085116 -11.3042,1.485637 -12.85715,0.890047 z M 467.87074,32.21244 c -0.39631,-0.982143 -0.72055,-0.178572 -0.72055,1.785714 0,1.964286 0.32424,2.767857 0.72055,1.785714 0.3963,-0.982142 0.3963,-2.589285 0,-3.571428 z"
       id="path6198"
       inkscape:connector-curvature="0" />
    <path
       style="fill:#96c0ec;fill-opacity:1;fill-rule:evenodd;stroke:#000000;stroke-width:8;stroke-linecap:butt;stroke-linejoin:miter;stroke-miterlimit:4;stroke-dasharray:none;stroke-opacity:1"
       d="M 272.85714,196.64792 275,258.07649 c 0,0 -0.71429,68.57143 -2.14286,72.14286 -1.42857,3.57143 -5.71428,37.85714 -5,46.42857 0.71429,8.57143 11.42857,66.42857 11.42857,66.42857 0,0 106.42858,24.28571 151.42858,25 45,0.71429 156.42857,5.71429 189.28571,-3.57143 32.85714,-9.28571 57.85714,-23.57143 58.57143,-29.28571 0.71429,-5.71429 1.42857,-47.14286 0.71429,-52.85715 -0.71429,-5.71428 2.85714,-55.71428 2.14285,-69.28571 -0.71428,-13.57143 -1.42857,-65.71429 -1.42857,-70 0,-4.28571 -3.57143,-43.57143 -3.57143,-43.57143 l -10,-2.85714 c 0,0 -24.28571,26.42857 -60.71428,30.71428 -36.42858,4.28572 -167.14286,2.85715 -209.28572,-1.42857 -42.14286,-4.28571 -123.57143,-29.28571 -123.57143,-29.28571 z"
       id="path6200"
       inkscape:connector-curvature="0" />
    <text
       xml:space="preserve"
       style="font-style:normal;font-variant:normal;font-weight:normal;font-stretch:normal;font-size:65.95767975px;line-height:133.00000429%;font-family:'.Al Bayan PUA';-inkscape-font-specification:'.Al Bayan PUA';letter-spacing:0px;word-spacing:0px;fill:#000000;fill-opacity:1;stroke:none;stroke-width:1px;stroke-linecap:butt;stroke-linejoin:miter;stroke-opacity:1"
       x="301.03616"
       y="352.16443"
       id="text6202"
       sodipodi:linespacing="133%"
       transform="scale(1.0321494,0.96885202)"><tspan
         sodipodi:role="line"
         id="tspan6204"
         x="301.03616"
         y="352.16443"
         style="font-style:normal;font-variant:normal;font-weight:500;font-stretch:normal;line-height:133.00000429%;font-family:'Hobo Std';-inkscape-font-specification:'Hobo Std Medium';letter-spacing:5.47000027px">PITN</tspan><tspan
         sodipodi:role="line"
         x="301.03616"
         y="439.88815"
         id="tspan6206"
         style="font-style:normal;font-variant:normal;font-weight:500;font-stretch:normal;font-family:'Hobo Std';-inkscape-font-specification:'Hobo Std Medium'"><tspan
   style="line-height:133.00000429%;letter-spacing:5.47000027px"
   id="tspan6208">   VOD</tspan>A</tspan></text>
  </g>
</svg>
