<?xml version="1.0" encoding="UTF-8" standalone="no"?>
<!-- Created with Inkscape (http://www.inkscape.org/) -->

<svg
   xmlns:dc="http://purl.org/dc/elements/1.1/"
   xmlns:cc="http://creativecommons.org/ns#"
   xmlns:rdf="http://www.w3.org/1999/02/22-rdf-syntax-ns#"
   xmlns:svg="http://www.w3.org/2000/svg"
   xmlns="http://www.w3.org/2000/svg"
   xmlns:sodipodi="http://sodipodi.sourceforge.net/DTD/sodipodi-0.dtd"
   xmlns:inkscape="http://www.inkscape.org/namespaces/inkscape"
   width="179.82738mm"
   height="124.7279mm"
   viewBox="0 0 637.18361 441.94927"
   id="svg2"
   version="1.1"
   inkscape:version="0.91 r13725"
   sodipodi:docname="freewifi.svg">
  <defs
     id="defs4" />
  <sodipodi:namedview
     id="base"
     pagecolor="#ffffff"
     bordercolor="#666666"
     borderopacity="1.0"
     inkscape:pageopacity="0.0"
     inkscape:pageshadow="2"
     inkscape:zoom="0.7"
     inkscape:cx="635.65129"
     inkscape:cy="64.674225"
     inkscape:document-units="px"
     inkscape:current-layer="layer1"
     showgrid="false"
     fit-margin-top="0"
     fit-margin-left="0"
     fit-margin-right="0"
     fit-margin-bottom="0"
     inkscape:window-width="1440"
     inkscape:window-height="797"
     inkscape:window-x="0"
     inkscape:window-y="0"
     inkscape:window-maximized="1" />
  <metadata
     id="metadata7">
    <rdf:RDF>
      <cc:Work
         rdf:about="">
        <dc:format>image/svg+xml</dc:format>
        <dc:type
           rdf:resource="http://purl.org/dc/dcmitype/StillImage" />
        <dc:title></dc:title>
      </cc:Work>
    </rdf:RDF>
  </metadata>
  <g
     inkscape:label="Vrstva 1"
     inkscape:groupmode="layer"
     id="layer1"
     transform="translate(-21.676816,-15.295305)">
    <path
       style="fill:#000000"
       d="M 322,451.61028 C 299.90223,448.90485 284.07592,445.35881 267.23763,439.34022 236.73846,428.43876 210.46338,411.5099 186.5,387.3215 l -10,-10.0939 -28,-0.0173 c -23.40939,-0.0144 -29.47556,-0.3234 -37,-1.88456 -43.231237,-8.96952 -75.836418,-43.23517 -82.964829,-87.1899 -2.143799,-13.21896 -2.181764,-80.04863 -0.05349,-94.16802 6.003732,-39.83003 34.075396,-72.97492 72.116199,-85.14935 12.12883,-3.88166 18.94922,-4.58338 44.62788,-4.59156 l 23.72575,-0.008 3.27425,-3.71352 c 13.32168,-15.108901 23.71594,-25.350691 34.27425,-33.771501 49.59884,-39.55766 114.33951,-54.83384 178,-42.0008 37.14632,7.48816 72.17545,25.36636 101.13816,51.61899 7.14006,6.47196 10.9449,10.45357 23.52388,24.616831 l 2.88646,3.25 24.51791,0 c 25.7727,0 33.04865,0.82838 45.93359,5.22963 25.75475,8.79732 47.67354,28.25347 60.01301,53.27037 10.56619,21.4218 11.86608,31.34555 11.19945,85.5 -0.50797,41.26571 -0.76368,43.67187 -6.27084,59.00596 -11.93494,33.23155 -38.50975,57.61986 -73.26619,67.23803 -6.87932,1.90372 -10.89079,2.16474 -38.67543,2.51649 l -31,0.39245 -13,12.71685 c -7.15,6.99427 -17.05,15.7172 -22,19.38429 -28.24602,20.9254 -61.54584,34.87112 -96.31786,40.33722 -9.31893,1.46492 -43.96568,2.68314 -51.18214,1.79963 z m 236.67764,-95.46046 c 30.4708,-4.16625 56.78942,-24.22946 67.91462,-51.77267 5.87571,-14.54679 5.90774,-14.89196 5.90774,-63.65779 0,-40.48222 -0.18462,-45.70277 -1.83897,-52 -2.45933,-9.36136 -9.43061,-23.49697 -15.58505,-31.60166 -12.54585,-16.52145 -33.75228,-28.83364 -54.94289,-31.89916 -8.6408,-1.25 -123.62538,-1.25 -132.26618,0 -35.72259,5.16777 -64.68793,32.66719 -71.45506,67.83879 -1.05774,5.49751 -1.41391,16.6587 -1.42005,44.5 -0.005,20.43912 -0.4469,40.98703 -0.98309,45.66203 -2.91888,25.4499 -13.09372,45.93573 -32.00808,64.44442 -4.95035,4.84418 -9.00063,8.97589 -9.00063,9.18159 0,0.97181 238.41975,0.29681 245.67764,-0.69555 z M 402.66667,304.55269 C 402.3,304.18603 402,273.59297 402,236.56812 l 0,-67.3179 60.00017,-0.26543 60.00017,-0.26543 -1.7e-4,16.25 -1.7e-4,16.25 -40.5,0 -40.5,0 0,14.5 0,14.5 36.5,0 36.5,0 0,15.98753 0,15.98752 -36.25,0.26248 -36.25,0.26247 -0.26989,21.25 -0.26989,21.25 -18.81344,0 c -10.3474,0 -19.11345,-0.3 -19.48011,-0.66667 z M 544,255.69629 l 0,-49.52308 17.75,0.27308 17.75,0.27307 0.25942,49.25 0.25943,49.25 -18.00943,0 -18.00942,0 0,-49.52307 z m 7.23432,-63.04746 c -8.4736,-4.22257 -11.85764,-11.89035 -8.7912,-19.91969 2.15039,-5.63072 6.21505,-9.06383 13.1014,-11.06575 6.87968,-1.99997 12.9315,-1.16219 18.8869,2.61461 4.71987,2.99326 8.56858,8.98352 8.56858,13.33642 0,13.5247 -17.84583,21.97097 -31.76568,15.03441 z M 150.00496,305.46936 c 0.003,-0.4125 3.35965,-18.24442 7.45982,-39.62648 C 164.00322,231.74542 166,222.66642 166,227.03482 c 0,1.12821 13.46202,72.52959 14.50524,76.93454 0.52731,2.22655 0.71394,2.25 17.90682,2.25 15.27819,0 17.45094,-0.20061 18.01214,-1.66307 0.56749,-1.47886 6.63431,-26.68513 26.64913,-110.72121 C 246.333,180.14872 249,168.78622 249,168.58508 c 0,-0.20115 -8.71749,-0.36572 -19.37219,-0.36572 l -19.37219,0 -0.6305,3.94291 c -0.34677,2.1686 -2.4115,16.0061 -4.58829,30.75 -6.18649,41.9026 -6.26755,42.40971 -6.70886,41.96839 -0.22948,-0.22948 -3.45449,-17.45964 -7.16669,-38.28926 l -6.74946,-37.87204 -18.13145,-0.27227 c -16.62536,-0.24966 -18.17542,-0.12506 -18.66076,1.5 -0.29112,0.97475 -3.5182,18.19727 -7.17131,38.27227 -3.6531,20.075 -6.78059,36.64468 -6.94999,36.82151 -0.51776,0.54048 -1.2923,-4.08302 -6.50345,-38.82151 -2.76395,-18.425 -5.25207,-34.5125 -5.52916,-35.75 -0.50136,-2.23909 -0.59823,-2.25 -19.98475,-2.25 -10.714527,0 -19.480947,0.37217 -19.480947,0.82705 0,0.45487 4.52103,19.69237 10.04673,42.75 5.5257,23.05762 12.762107,53.38734 16.080917,67.39938 3.3188,14.01203 6.24933,25.82453 6.51229,26.25 0.61551,0.99591 35.35844,1.01907 35.36502,0.0236 z M 301,255.71936 l 0,-50.5 -18,0 -18,0 0,50.5 0,50.5 18,0 18,0 0,-50.5 z m -7.3776,-62.32299 c 10.60745,-5.45429 13.80967,-16.14401 7.49334,-25.01447 -1.17116,-1.64474 -4.46467,-4.15417 -7.31891,-5.57649 C 279.3844,155.62339 262,164.21608 262,178.52182 c 0,13.30994 18.10392,21.82566 31.6224,14.87455 z m -35.40414,-100.927011 0.28174,-11.75 12.31103,-0.28127 12.31102,-0.28127 -0.31102,-3.10357 -0.31103,-3.10358 -10.53297,0.18674 c -5.79313,0.10271 -11.31424,-0.11306 -12.26913,-0.47948 -1.4507,-0.55669 -1.71266,-1.88062 -1.59318,-8.0519 l 0.14299,-7.38567 14.37614,0 14.37615,0 0,-3.5 0,-3.5 -18,0 -18,0 0,26.5 0,26.500001 3.46826,0 3.46827,0 0.28173,-11.750001 z m 44.56556,-0.11434 0.28382,-11.36434 6.44883,0.41063 c 7.8609,0.50054 10.15339,2.37596 17.80575,14.5664 l 5.17778,8.248351 4.80902,0.002 c 3.58495,0.001 4.61615,-0.31652 4.0513,-1.24835 -4.48754,-7.403111 -11.08201,-16.863651 -13.51733,-19.392191 l -3.02634,-3.1422 3.55895,-1.17455 c 10.49441,-3.46347 12.46294,-18.73994 3.26066,-25.30396 -2.89252,-2.06359 -4.43804,-2.26343 -19.88626,-2.57174 l -16.75,-0.33429 0,26.64466 0,26.644651 3.75,-0.31036 3.75,-0.31037 0.28382,-11.364341 z M 303,66.130879 l 0,-8.08847 11.08862,0.33847 c 10.72351,0.32733 11.16802,0.43086 13.5,3.14424 3.17477,3.69401 3.04265,6.21681 -0.5117,9.77116 -2.86228,2.86229 -3.14305,2.92308 -13.5,2.92308 l -10.57692,0 0,-8.08848 z m 85,34.588481 0,-3.500001 -16,0 -16,0 0,-8.5 0,-8.5 14.56336,0 14.56336,0 -0.31336,-3.14649 -0.31336,-3.14648 -14,-0.10352 -14,-0.10351 -0.29206,-7.75 -0.29207,-7.75 15.54207,0 15.54206,0 0,-3.5 0,-3.5 -19,0 -19,0 0,26.5 0,26.500001 19.5,0 19.5,0 0,-3.5 z m 49,0 0,-3.500001 -16,0 -16,0 0,-8.5 0,-8.5 14.5,0 14.5,0 0,-3 0,-3 -14.5,0 -14.5,0 0,-8 0,-8 15.5,0 15.5,0 0,-3.52159 0,-3.5216 -19.25,0.2716 -19.25,0.27159 -0.26798,24.98196 c -0.14738,13.74008 -0.049,25.552581 0.21862,26.250001 0.36998,0.96416 5.16719,1.26804 20.01798,1.26804 l 19.53138,0 0,-3.5 z"
       id="path4147"
       inkscape:connector-curvature="0" />
    <path
       style="fill:#ffffff;fill-opacity:1;fill-rule:evenodd;stroke:#000000;stroke-width:1px;stroke-linecap:butt;stroke-linejoin:miter;stroke-opacity:1"
       d="m 57.210791,176.13695 33.335034,169.70562 146.472115,37.37565 221.22341,-11.11168 79.80205,-7.07107 55.5584,-8.08122 37.37564,-35.35534 11.11167,-46.46701 -5.05075,-94.95434 -18.18276,-39.39595 -39.39595,-22.22336 -70.71068,-4.04061 -58.58884,-55.558392 -15.15229,-14.142135 -190.91883,0 -72.73099,102.025407 -114.147229,19.1929 z"
       id="path4151"
       inkscape:connector-curvature="0" />
    <path
       style="fill:#000000;fill-opacity:1;stroke:#ffffff;stroke-width:10;stroke-miterlimit:4;stroke-dasharray:none;stroke-opacity:1"
       d="M 322,451.61028 C 299.90223,448.90485 284.07592,445.35881 267.23763,439.34022 236.73846,428.43876 210.46338,411.5099 186.5,387.3215 l -10,-10.0939 -28,-0.0173 c -23.40939,-0.0144 -29.47556,-0.3234 -37,-1.88456 -43.231237,-8.96952 -75.836418,-43.23517 -82.964829,-87.1899 -2.143799,-13.21896 -2.181764,-80.04863 -0.05349,-94.16802 6.003732,-39.83003 34.075396,-72.97492 72.116199,-85.14935 12.12883,-3.88166 18.94922,-4.58338 44.62788,-4.59156 l 23.72575,-0.008 3.27425,-3.71352 c 13.32168,-15.1089 23.71594,-25.350691 34.27425,-33.771501 49.59884,-39.55766 114.33951,-54.83384 178,-42.0008 37.14632,7.48816 72.17545,25.36636 101.13816,51.61899 7.14006,6.471961 10.9449,10.453571 23.52388,24.616831 l 2.88646,3.25 24.51791,0 c 25.7727,0 33.04865,0.82838 45.93359,5.22963 25.75475,8.79732 47.67354,28.25347 60.01301,53.27037 10.56619,21.4218 11.86608,31.34555 11.19945,85.5 -0.50797,41.26571 -0.76368,43.67187 -6.27084,59.00596 -11.93494,33.23155 -38.50975,57.61986 -73.26619,67.23803 -6.87932,1.90372 -10.89079,2.16474 -38.67543,2.51649 l -31,0.39245 -13,12.71685 c -7.15,6.99427 -17.05,15.7172 -22,19.38429 -28.24602,20.9254 -61.54584,34.87112 -96.31786,40.33722 -9.31893,1.46492 -43.96568,2.68314 -51.18214,1.79963 z m 236.67764,-95.46046 c 30.4708,-4.16625 56.78942,-24.22946 67.91462,-51.77267 5.87571,-14.54679 5.90774,-14.89196 5.90774,-63.65779 0,-40.48222 -0.18462,-45.70277 -1.83897,-52 -2.45933,-9.36136 -9.43061,-23.49697 -15.58505,-31.60166 -12.54585,-16.52145 -33.75228,-28.83364 -54.94289,-31.89916 -8.6408,-1.25 -123.62538,-1.25 -132.26618,0 -35.72259,5.16777 -64.68793,32.66719 -71.45506,67.83879 -1.05774,5.49751 -1.41391,16.6587 -1.42005,44.5 -0.005,20.43912 -0.4469,40.98703 -0.98309,45.66203 -2.91888,25.4499 -13.09372,45.93573 -32.00808,64.44442 -4.95035,4.84418 -9.00063,8.97589 -9.00063,9.18159 0,0.97181 238.41975,0.29681 245.67764,-0.69555 z M 402.66667,304.55269 C 402.3,304.18603 402,273.59297 402,236.56812 l 0,-67.3179 60.00017,-0.26543 60.00017,-0.26543 -1.7e-4,16.25 -1.7e-4,16.25 -40.5,0 -40.5,0 0,14.5 0,14.5 36.5,0 36.5,0 0,15.98753 0,15.98752 -36.25,0.26248 -36.25,0.26247 -0.26989,21.25 -0.26989,21.25 -18.81344,0 c -10.3474,0 -19.11345,-0.3 -19.48011,-0.66667 z M 544,255.69629 l 0,-49.52308 17.75,0.27308 17.75,0.27307 0.25942,49.25 0.25943,49.25 -18.00943,0 -18.00942,0 0,-49.52307 z m 7.23432,-63.04746 c -8.4736,-4.22257 -11.85764,-11.89035 -8.7912,-19.91969 2.15039,-5.63072 6.21505,-9.06383 13.1014,-11.06575 6.87968,-1.99997 12.9315,-1.16219 18.8869,2.61461 4.71987,2.99326 8.56858,8.98352 8.56858,13.33642 0,13.5247 -17.84583,21.97097 -31.76568,15.03441 z M 150.00496,305.46936 c 0.003,-0.4125 3.35965,-18.24442 7.45982,-39.62648 C 164.00322,231.74542 166,222.66642 166,227.03482 c 0,1.12821 13.46202,72.52959 14.50524,76.93454 0.52731,2.22655 0.71394,2.25 17.90682,2.25 15.27819,0 17.45094,-0.20061 18.01214,-1.66307 0.56749,-1.47886 6.63431,-26.68513 26.64913,-110.72121 C 246.333,180.14872 249,168.78622 249,168.58508 c 0,-0.20115 -8.71749,-0.36572 -19.37219,-0.36572 l -19.37219,0 -0.6305,3.94291 c -0.34677,2.1686 -2.4115,16.0061 -4.58829,30.75 -6.18649,41.9026 -6.26755,42.40971 -6.70886,41.96839 -0.22948,-0.22948 -3.45449,-17.45964 -7.16669,-38.28926 l -6.74946,-37.87204 -18.13145,-0.27227 c -16.62536,-0.24966 -18.17542,-0.12506 -18.66076,1.5 -0.29112,0.97475 -3.5182,18.19727 -7.17131,38.27227 -3.6531,20.075 -6.78059,36.64468 -6.94999,36.82151 -0.51776,0.54048 -1.2923,-4.08302 -6.50345,-38.82151 -2.76395,-18.425 -5.25207,-34.5125 -5.52916,-35.75 -0.50136,-2.23909 -0.59823,-2.25 -19.98475,-2.25 -10.714527,0 -19.480947,0.37217 -19.480947,0.82705 0,0.45487 4.52103,19.69237 10.04673,42.75 5.5257,23.05762 12.762107,53.38734 16.080917,67.39938 3.3188,14.01203 6.24933,25.82453 6.51229,26.25 0.61551,0.99591 35.35844,1.01907 35.36502,0.0236 z M 301,255.71936 l 0,-50.5 -18,0 -18,0 0,50.5 0,50.5 18,0 18,0 0,-50.5 z m -7.3776,-62.32299 c 10.60745,-5.45429 13.80967,-16.14401 7.49334,-25.01447 -1.17116,-1.64474 -4.46467,-4.15417 -7.31891,-5.57649 C 279.3844,155.62339 262,164.21608 262,178.52182 c 0,13.30994 18.10392,21.82566 31.6224,14.87455 z m -35.40414,-100.92701 0.28174,-11.75 12.31103,-0.28127 12.31102,-0.28127 -0.31102,-3.103571 -0.31103,-3.10358 -10.53297,0.18674 c -5.79313,0.10271 -11.31424,-0.11306 -12.26913,-0.47948 -1.4507,-0.55669 -1.71266,-1.88062 -1.59318,-8.0519 l 0.14299,-7.38567 14.37614,0 14.37615,0 0,-3.5 0,-3.5 -18,0 -18,0 0,26.5 0,26.500001 3.46826,0 3.46827,0 0.28173,-11.75 z m 44.56556,-0.11434 0.28382,-11.36434 6.44883,0.41063 c 7.8609,0.50054 10.15339,2.37596 17.80575,14.5664 l 5.17778,8.24835 4.80902,0.002 c 3.58495,0.001 4.61615,-0.31652 4.0513,-1.24835 -4.48754,-7.40311 -11.08201,-16.86365 -13.51733,-19.39219 l -3.02634,-3.1422 3.55895,-1.174551 c 10.49441,-3.46347 12.46294,-18.73994 3.26066,-25.30396 -2.89252,-2.06359 -4.43804,-2.26343 -19.88626,-2.57174 l -16.75,-0.33429 0,26.64466 0,26.644651 3.75,-0.31036 3.75,-0.31037 0.28382,-11.36434 z M 303,66.130879 l 0,-8.08847 11.08862,0.33847 c 10.72351,0.32733 11.16802,0.43086 13.5,3.14424 3.17477,3.69401 3.04265,6.21681 -0.5117,9.77116 -2.86228,2.86229 -3.14305,2.92308 -13.5,2.92308 l -10.57692,0 0,-8.08848 z m 85,34.588481 0,-3.5 -16,0 -16,0 0,-8.5 0,-8.5 14.56336,0 14.56336,0 -0.31336,-3.146491 -0.31336,-3.14648 -14,-0.10352 -14,-0.10351 -0.29206,-7.75 -0.29207,-7.75 15.54207,0 15.54206,0 0,-3.5 0,-3.5 -19,0 -19,0 0,26.5 0,26.500001 19.5,0 19.5,0 0,-3.5 z m 49,0 0,-3.5 -16,0 -16,0 0,-8.5 0,-8.5 14.5,0 14.5,0 0,-3.000001 0,-3 -14.5,0 -14.5,0 0,-8 0,-8 15.5,0 15.5,0 0,-3.52159 0,-3.5216 -19.25,0.2716 -19.25,0.27159 -0.26798,24.98196 c -0.14738,13.740081 -0.049,25.552581 0.21862,26.250001 0.36998,0.96416 5.16719,1.26804 20.01798,1.26804 l 19.53138,0 0,-3.5 z"
       id="path4218"
       inkscape:connector-curvature="0" />
    <path
       inkscape:connector-curvature="0"
       id="path4149"
       d="M 322,451.61028 C 299.90223,448.90485 284.07592,445.35881 267.23763,439.34022 236.73846,428.43876 210.46338,411.5099 186.5,387.3215 l -10,-10.0939 -28,-0.0173 c -23.40939,-0.0144 -29.47556,-0.3234 -37,-1.88456 -43.231237,-8.96952 -75.836418,-43.23517 -82.964829,-87.1899 -2.143799,-13.21896 -2.181764,-80.04863 -0.05349,-94.16802 6.003732,-39.83003 34.075396,-72.97492 72.116199,-85.14935 12.12883,-3.88166 18.94922,-4.58338 44.62788,-4.59156 l 23.72575,-0.008 3.27425,-3.71352 c 13.32168,-15.108901 23.71594,-25.350691 34.27425,-33.771501 49.59884,-39.55766 114.33951,-54.83384 178,-42.0008 37.14632,7.48816 72.17545,25.36636 101.13816,51.61899 7.14006,6.47196 10.9449,10.45357 23.52388,24.616831 l 2.88646,3.25 24.51791,0 c 25.7727,0 33.04865,0.82838 45.93359,5.22963 25.75475,8.79732 47.67354,28.25347 60.01301,53.27037 10.56619,21.4218 11.86608,31.34555 11.19945,85.5 -0.50797,41.26571 -0.76368,43.67187 -6.27084,59.00596 -11.93494,33.23155 -38.50975,57.61986 -73.26619,67.23803 -6.87932,1.90372 -10.89079,2.16474 -38.67543,2.51649 l -31,0.39245 -13,12.71685 c -7.15,6.99427 -17.05,15.7172 -22,19.38429 -28.24602,20.9254 -61.54584,34.87112 -96.31786,40.33722 -9.31893,1.46492 -43.96568,2.68314 -51.18214,1.79963 z m 236.67764,-95.46046 c 30.4708,-4.16625 56.78942,-24.22946 67.91462,-51.77267 5.87571,-14.54679 5.90774,-14.89196 5.90774,-63.65779 0,-40.48222 -0.18462,-45.70277 -1.83897,-52 -2.45933,-9.36136 -9.43061,-23.49697 -15.58505,-31.60166 -12.54585,-16.52145 -33.75228,-28.83364 -54.94289,-31.89916 -8.6408,-1.25 -123.62538,-1.25 -132.26618,0 -35.72259,5.16777 -64.68793,32.66719 -71.45506,67.83879 -1.05774,5.49751 -1.41391,16.6587 -1.42005,44.5 -0.005,20.43912 -0.4469,40.98703 -0.98309,45.66203 -2.91888,25.4499 -13.09372,45.93573 -32.00808,64.44442 -4.95035,4.84418 -9.00063,8.97589 -9.00063,9.18159 0,0.97181 238.41975,0.29681 245.67764,-0.69555 z M 402.66667,304.55269 C 402.3,304.18603 402,273.59297 402,236.56812 l 0,-67.3179 60.00017,-0.26543 60.00017,-0.26543 -1.7e-4,16.25 -1.7e-4,16.25 -40.5,0 -40.5,0 0,14.5 0,14.5 36.5,0 36.5,0 0,15.98753 0,15.98752 -36.25,0.26248 -36.25,0.26247 -0.26989,21.25 -0.26989,21.25 -18.81344,0 c -10.3474,0 -19.11345,-0.3 -19.48011,-0.66667 z M 544,255.69629 l 0,-49.52308 17.75,0.27308 17.75,0.27307 0.25942,49.25 0.25943,49.25 -18.00943,0 -18.00942,0 0,-49.52307 z m 7.23432,-63.04746 c -8.4736,-4.22257 -11.85764,-11.89035 -8.7912,-19.91969 2.15039,-5.63072 6.21505,-9.06383 13.1014,-11.06575 6.87968,-1.99997 12.9315,-1.16219 18.8869,2.61461 4.71987,2.99326 8.56858,8.98352 8.56858,13.33642 0,13.5247 -17.84583,21.97097 -31.76568,15.03441 z M 150.00496,305.46936 c 0.003,-0.4125 3.35965,-18.24442 7.45982,-39.62648 C 164.00322,231.74542 166,222.66642 166,227.03482 c 0,1.12821 13.46202,72.52959 14.50524,76.93454 0.52731,2.22655 0.71394,2.25 17.90682,2.25 15.27819,0 17.45094,-0.20061 18.01214,-1.66307 0.56749,-1.47886 6.63431,-26.68513 26.64913,-110.72121 C 246.333,180.14872 249,168.78622 249,168.58508 c 0,-0.20115 -8.71749,-0.36572 -19.37219,-0.36572 l -19.37219,0 -0.6305,3.94291 c -0.34677,2.1686 -2.4115,16.0061 -4.58829,30.75 -6.18649,41.9026 -6.26755,42.40971 -6.70886,41.96839 -0.22948,-0.22948 -3.45449,-17.45964 -7.16669,-38.28926 l -6.74946,-37.87204 -18.13145,-0.27227 c -16.62536,-0.24966 -18.17542,-0.12506 -18.66076,1.5 -0.29112,0.97475 -3.5182,18.19727 -7.17131,38.27227 -3.6531,20.075 -6.78059,36.64468 -6.94999,36.82151 -0.51776,0.54048 -1.2923,-4.08302 -6.50345,-38.82151 -2.76395,-18.425 -5.25207,-34.5125 -5.52916,-35.75 -0.50136,-2.23909 -0.59823,-2.25 -19.98475,-2.25 -10.714527,0 -19.480947,0.37217 -19.480947,0.82705 0,0.45487 4.52103,19.69237 10.04673,42.75 5.5257,23.05762 12.762107,53.38734 16.080917,67.39938 3.3188,14.01203 6.24933,25.82453 6.51229,26.25 0.61551,0.99591 35.35844,1.01907 35.36502,0.0236 z M 301,255.71936 l 0,-50.5 -18,0 -18,0 0,50.5 0,50.5 18,0 18,0 0,-50.5 z m -7.3776,-62.32299 c 10.60745,-5.45429 13.80967,-16.14401 7.49334,-25.01447 -1.17116,-1.64474 -4.46467,-4.15417 -7.31891,-5.57649 C 279.3844,155.62339 262,164.21608 262,178.52182 c 0,13.30994 18.10392,21.82566 31.6224,14.87455 z m -35.40414,-100.927011 0.28174,-11.75 12.31103,-0.28127 12.31102,-0.28127 -0.31102,-3.10357 -0.31103,-3.10358 -10.53297,0.18674 c -5.79313,0.10271 -11.31424,-0.11306 -12.26913,-0.47948 -1.4507,-0.55669 -1.71266,-1.88062 -1.59318,-8.0519 l 0.14299,-7.38567 14.37614,0 14.37615,0 0,-3.5 0,-3.5 -18,0 -18,0 0,26.5 0,26.500001 3.46826,0 3.46827,0 0.28173,-11.750001 z m 44.56556,-0.11434 0.28382,-11.36434 6.44883,0.41063 c 7.8609,0.50054 10.15339,2.37596 17.80575,14.5664 l 5.17778,8.248351 4.80902,0.002 c 3.58495,0.001 4.61615,-0.31652 4.0513,-1.24835 -4.48754,-7.403111 -11.08201,-16.863651 -13.51733,-19.392191 l -3.02634,-3.1422 3.55895,-1.17455 c 10.49441,-3.46347 12.46294,-18.73994 3.26066,-25.30396 -2.89252,-2.06359 -4.43804,-2.26343 -19.88626,-2.57174 l -16.75,-0.33429 0,26.64466 0,26.644651 3.75,-0.31036 3.75,-0.31037 0.28382,-11.364341 z M 303,66.130879 l 0,-8.08847 11.08862,0.33847 c 10.72351,0.32733 11.16802,0.43086 13.5,3.14424 3.17477,3.69401 3.04265,6.21681 -0.5117,9.77116 -2.86228,2.86229 -3.14305,2.92308 -13.5,2.92308 l -10.57692,0 0,-8.08848 z m 85,34.588481 0,-3.500001 -16,0 -16,0 0,-8.5 0,-8.5 14.56336,0 14.56336,0 -0.31336,-3.14649 -0.31336,-3.14648 -14,-0.10352 -14,-0.10351 -0.29206,-7.75 -0.29207,-7.75 15.54207,0 15.54206,0 0,-3.5 0,-3.5 -19,0 -19,0 0,26.5 0,26.500001 19.5,0 19.5,0 0,-3.5 z m 49,0 0,-3.500001 -16,0 -16,0 0,-8.5 0,-8.5 14.5,0 14.5,0 0,-3 0,-3 -14.5,0 -14.5,0 0,-8 0,-8 15.5,0 15.5,0 0,-3.52159 0,-3.5216 -19.25,0.2716 -19.25,0.27159 -0.26798,24.98196 c -0.14738,13.74008 -0.049,25.552581 0.21862,26.250001 0.36998,0.96416 5.16719,1.26804 20.01798,1.26804 l 19.53138,0 0,-3.5 z"
       style="fill:#000000;fill-opacity:1;stroke:none;stroke-width:6.0999999;stroke-miterlimit:4;stroke-dasharray:none;stroke-opacity:1" />
  </g>
</svg>
