<?xml version="1.0" encoding="UTF-8" standalone="no"?>
<!-- Created with Inkscape (http://www.inkscape.org/) -->

<svg
   xmlns:dc="http://purl.org/dc/elements/1.1/"
   xmlns:cc="http://creativecommons.org/ns#"
   xmlns:rdf="http://www.w3.org/1999/02/22-rdf-syntax-ns#"
   xmlns:svg="http://www.w3.org/2000/svg"
   xmlns="http://www.w3.org/2000/svg"
   xmlns:sodipodi="http://sodipodi.sourceforge.net/DTD/sodipodi-0.dtd"
   xmlns:inkscape="http://www.inkscape.org/namespaces/inkscape"
   width="59.785046mm"
   height="26.438219mm"
   viewBox="0 0 211.83677 93.678725"
   id="svg2"
   version="1.1"
   inkscape:version="0.91 r13725"
   sodipodi:docname="logo.svg">
  <defs
     id="defs4" />
  <sodipodi:namedview
     id="base"
     pagecolor="#ffffff"
     bordercolor="#666666"
     borderopacity="1.0"
     inkscape:pageopacity="0.0"
     inkscape:pageshadow="2"
     inkscape:zoom="3.959798"
     inkscape:cx="94.887124"
     inkscape:cy="52.139993"
     inkscape:document-units="px"
     inkscape:current-layer="layer1"
     showgrid="false"
     fit-margin-top="-5"
     fit-margin-left="0"
     fit-margin-right="0"
     fit-margin-bottom="0"
     inkscape:window-width="1440"
     inkscape:window-height="797"
     inkscape:window-x="0"
     inkscape:window-y="0"
     inkscape:window-maximized="1" />
  <metadata
     id="metadata7">
    <rdf:RDF>
      <cc:Work
         rdf:about="">
        <dc:format>image/svg+xml</dc:format>
        <dc:type
           rdf:resource="http://purl.org/dc/dcmitype/StillImage" />
        <dc:title></dc:title>
      </cc:Work>
    </rdf:RDF>
  </metadata>
  <g
     inkscape:label="Vrstva 1"
     inkscape:groupmode="layer"
     id="layer1"
     transform="translate(-94.924178,-838.9884)">
    <g
       id="g4209"
       style="stroke:#ffffff;stroke-opacity:0.29209625">
      <path
         sodipodi:nodetypes="cc"
         inkscape:connector-curvature="0"
         id="path4193"
         d="M 285.87551,931.90043 C 207.89656,903.45186 146.09308,865.8 95.714287,821.64789"
         style="fill:none;fill-rule:evenodd;stroke:#ffffff;stroke-width:1px;stroke-linecap:butt;stroke-linejoin:miter;stroke-opacity:0.29209625" />
      <path
         sodipodi:nodetypes="cc"
         inkscape:connector-curvature="0"
         id="path4195"
         d="m 278.39286,931.82646 c -62.47121,-20.56633 -123.71395,-50.78494 -182.857144,-97.5"
         style="fill:none;fill-rule:evenodd;stroke:#ffffff;stroke-width:1px;stroke-linecap:butt;stroke-linejoin:miter;stroke-opacity:0.29209625" />
      <path
         sodipodi:nodetypes="cc"
         inkscape:connector-curvature="0"
         id="path4197"
         d="M 269.28572,932.00503 C 186.36745,905.62565 137.02285,877.10198 95.535716,848.07646"
         style="fill:none;fill-rule:evenodd;stroke:#ffffff;stroke-width:1px;stroke-linecap:butt;stroke-linejoin:miter;stroke-opacity:0.29209625" />
      <path
         sodipodi:nodetypes="cc"
         inkscape:connector-curvature="0"
         id="path4199"
         d="M 257.32143,932.00503 C 206.07017,917.5505 152.60863,896.12509 95.178573,862.1836"
         style="fill:none;fill-rule:evenodd;stroke:#ffffff;stroke-width:1px;stroke-linecap:butt;stroke-linejoin:miter;stroke-opacity:0.29209625" />
      <path
         sodipodi:nodetypes="cc"
         inkscape:connector-curvature="0"
         id="path4201"
         d="M 241.78572,932.1836 C 199.59499,919.65423 159.36338,909.00062 95.535716,875.75503"
         style="fill:none;fill-rule:evenodd;stroke:#ffffff;stroke-width:1px;stroke-linecap:butt;stroke-linejoin:miter;stroke-opacity:0.29209625" />
      <path
         sodipodi:nodetypes="cc"
         inkscape:connector-curvature="0"
         id="path4203"
         d="M 219.64286,931.82646 C 182.8091,922.14826 147.0252,913.45218 95.892858,890.39789"
         style="fill:none;fill-rule:evenodd;stroke:#ffffff;stroke-width:1px;stroke-linecap:butt;stroke-linejoin:miter;stroke-opacity:0.29209625" />
      <path
         sodipodi:nodetypes="cc"
         inkscape:connector-curvature="0"
         id="path4205"
         d="M 187.32143,932.1836 C 156.10875,923.96664 125.49919,914.74448 95.714287,904.14789"
         style="fill:none;fill-rule:evenodd;stroke:#ffffff;stroke-width:1px;stroke-linecap:butt;stroke-linejoin:miter;stroke-opacity:0.29209625" />
      <path
         sodipodi:nodetypes="cc"
         inkscape:connector-curvature="0"
         id="path4207"
         d="m 146.78572,931.64789 c -17.18154,-3.99111 -34.18678,-8.51111 -50.892862,-13.92857"
         style="fill:none;fill-rule:evenodd;stroke:#ffffff;stroke-width:1px;stroke-linecap:butt;stroke-linejoin:miter;stroke-opacity:0.29209625" />
    </g>
    <path
       inkscape:connector-curvature="0"
       id="path4189"
       d="m 113.98663,916.19003 c -2.0582,-0.45383 -3.69559,-1.31333 -4.94421,-2.59525 -1.40641,-1.44389 -2.03432,-3.1096 -1.75103,-4.64509 0.71287,-3.86386 5.8027,-8.6005 13.16358,-12.25017 6.9901,-3.46583 13.3536,-4.30338 23.32428,-3.0699 l 2.30221,0.28481 1.822,-1.87367 c 4.13669,-4.25399 5.62072,-5.86021 8.38022,-9.07019 1.59446,-1.85475 2.87326,-3.39804 2.84178,-3.42953 -0.17121,-0.1712 -6.94427,0.59671 -10.85366,1.23057 -1.27585,0.20686 -2.3894,0.35289 -2.47455,0.3245 -0.30027,-0.10005 3.20074,-4.50579 3.7515,-4.72093 0.16925,-0.066 1.3331,-0.37261 2.58635,-0.68111 9.17643,-2.25885 16.95421,-2.37915 19.81541,-0.30652 2.1785,1.5781 2.48589,3.8545 1.58882,11.76588 -1.38629,12.22583 -2.06679,20.43443 -1.88517,22.74009 l 0.0601,0.76251 -0.63834,0.16333 c -3.74212,0.9577 -9.14412,2.62303 -11.20962,3.45574 -0.70363,0.28366 -1.33578,0.51575 -1.40477,0.51575 -0.069,0 -0.0321,-0.34732 0.082,-0.77182 0.42708,-1.58868 2.70607,-13.12943 2.70607,-13.7034 0,-0.37013 -4.39728,-0.44177 -9.8244,-0.16003 l -4.89967,0.25435 -2.67123,2.20603 c -4.29783,3.54934 -9.23961,7.18025 -12.36461,9.08481 -3.47925,2.12039 -7.81085,3.84775 -11.23469,4.48013 -1.50836,0.2786 -5.02313,0.28373 -6.26833,0.009 z m 13.11089,-6.16022 1.6443,-0.19385 3.05994,-2.54962 c 3.80051,-3.16664 8.13171,-6.89957 8.13171,-7.00844 0,-0.1598 -9.37781,0.33726 -14.70076,0.77921 -3.27098,0.27156 -3.12262,0.20615 -4.35192,1.91865 -0.83886,1.16858 -1.3433,2.32614 -1.55716,3.57327 -0.30677,1.7889 0.32658,2.73651 2.28009,3.41157 0.93559,0.32328 3.10629,0.35063 5.4938,0.0693 z m 34.79322,-14.38669 c 0.30558,-2.99497 0.54192,-6.43325 0.61895,-9.00421 l 0.088,-2.94015 -0.69887,0.73504 c -0.38438,0.40426 -2.13878,2.25656 -3.89866,4.11619 -1.7599,1.85967 -3.83057,4.00633 -4.60151,4.7704 l -1.40169,1.38918 3.41343,0.62587 c 1.87739,0.34423 3.97575,0.75306 4.66301,0.90851 1.83084,0.41408 1.70959,0.45416 1.81722,-0.60083 z m 23.26673,11.98112 c 2.40437,-5.30669 3.46373,-8.02185 4.11536,-10.5478 0.36488,-1.41442 0.41752,-1.88789 0.41993,-3.7781 0.002,-1.38611 -0.0556,-2.21929 -0.1598,-2.32357 -0.11875,-0.11875 -0.39611,0.0331 -1.02905,0.56334 l -0.86649,0.72589 -1.63198,6.74294 -1.63198,6.74295 -1.38167,0.10568 c -2.56083,0.19588 -6.75651,0.83478 -8.10728,1.23457 -0.15326,0.0453 -0.25726,-0.002 -0.25726,-0.11735 0,-0.1064 0.29553,-1.31815 0.65672,-2.69277 0.88355,-3.36257 3.22476,-12.98596 3.64714,-14.99133 0.33711,-1.60055 0.34388,-1.61488 0.84787,-1.79366 1.86705,-0.6623 9.5606,-2.87815 9.65731,-2.78144 0.0296,0.0295 -0.0854,0.59822 -0.25528,1.26379 -0.16995,0.66556 -0.27602,1.24306 -0.23574,1.28334 0.0402,0.0402 1.1848,-0.50692 2.54336,-1.21603 l 2.47012,-1.28928 1.10255,0.1629 c 2.5633,0.37871 3.76316,1.04413 4.51736,2.50524 0.39484,0.76489 0.48091,1.09864 0.48091,1.86473 0,1.49724 -0.5426,3.66435 -1.69234,6.7591 -0.30038,0.80855 -0.96685,2.68688 -1.48105,4.17408 l -0.9349,2.704 -2.90736,1.56775 c -1.59906,0.86227 -3.46968,1.87475 -4.15694,2.24995 -1.03156,0.56315 -3.7505,1.72637 -4.0353,1.72637 -0.0424,0 0.0952,-0.38039 0.30579,-0.84529 z m 65.7667,0.78741 c 0,-0.0222 0.59358,-1.37404 1.31908,-3.00411 2.90453,-6.52602 3.96038,-10.49841 3.5566,-13.38056 -0.0832,-0.59414 -0.18384,-1.11275 -0.22357,-1.15248 -0.0397,-0.0397 -0.47108,0.24697 -0.9586,0.63709 l -0.88641,0.70929 -0.87186,3.60385 c -0.47952,1.9821 -1.21651,5.03406 -1.63777,6.78211 l -0.76592,3.17826 -1.56662,0.10171 c -2.05019,0.13313 -4.39756,0.45834 -6.48253,0.89808 -0.92497,0.1951 -1.70008,0.33637 -1.7225,0.31397 -0.0224,-0.0224 0.25449,-1.16203 0.61532,-2.53247 0.76646,-2.91089 3.45838,-13.99437 3.82642,-15.75461 l 0.25266,-1.20829 0.825,-0.23654 c 0.45375,-0.1301 1.98268,-0.58946 3.39764,-1.02078 3.09287,-0.94284 5.89957,-1.72163 5.96582,-1.65539 0.0265,0.0264 -0.08,0.54183 -0.23667,1.14515 -0.15666,0.60334 -0.28596,1.17941 -0.28736,1.28017 -0.002,0.10347 1.11354,-0.37372 2.56284,-1.09696 l 2.56536,-1.2802 1.07308,0.18132 c 2.47492,0.41821 3.75709,1.15136 4.46842,2.5551 0.20345,0.40151 0.40782,1.05002 0.45414,1.44112 0.1642,1.38634 -0.53363,4.02378 -2.35486,8.90016 -0.60287,1.61423 -1.21184,3.36496 -1.35326,3.8905 -0.14141,0.52557 -0.33029,1.03333 -0.41974,1.12838 -0.16955,0.18017 -3.76687,2.15555 -7.09407,3.89551 -1.58369,0.82819 -4.02064,1.84682 -4.02064,1.68059 z m -43.90641,-1.62601 c -3.35427,-1.20911 -5.14303,-2.99984 -5.48261,-5.48864 -0.1782,-1.306 0.0562,-2.56357 0.95212,-5.10729 0.45471,-1.29108 0.96181,-2.73152 1.12689,-3.20095 0.16507,-0.46943 0.25842,-0.89524 0.20742,-0.94624 -0.051,-0.051 -0.73638,0.0106 -1.52308,0.13667 -0.78673,0.12618 -1.44537,0.21725 -1.46366,0.20244 -0.0182,-0.0148 1.00796,-1.25524 2.28059,-2.75651 l 2.31386,-2.72953 0.51255,-2.0393 0.51254,-2.03929 3.71746,-0.38856 c 2.0446,-0.2137 4.01266,-0.43282 4.37348,-0.48691 0.58116,-0.0871 0.65602,-0.0665 0.65602,0.18112 0,0.23915 -0.33008,1.60614 -0.67802,2.80798 l -0.10129,0.34983 2.59476,-0.0643 c 1.42711,-0.0353 2.59477,-0.058 2.59477,-0.0501 0,0.0728 -1.60288,3.79036 -2.01364,4.67027 -0.40749,0.8729 -0.60378,1.14214 -0.83945,1.15139 -0.16917,0.006 -1.16463,0.0894 -2.21213,0.18377 l -1.90455,0.17167 -0.55413,1.9111 c -0.98421,3.39434 -1.04107,4.35997 -0.30808,5.2311 0.3971,0.4719 1.35482,1.00952 2.31919,1.30185 0.32341,0.0981 0.67527,0.20595 0.7819,0.23983 0.15475,0.0493 -3.73649,4.39724 -6.13139,6.85117 l -0.38381,0.39326 -1.34772,-0.48581 z m 59.98976,0.12638 c 0.4043,-1.04374 1.33323,-4.04819 1.90469,-6.16039 0.64025,-2.36643 1.85799,-7.42228 1.85799,-7.71408 0,-0.0744 -0.51269,-0.13221 -1.13932,-0.12827 -1.27421,0.008 -2.502,-0.14282 -2.61203,-0.32086 -0.0399,-0.0645 0.33128,-0.97531 0.82484,-2.02391 l 0.89738,-1.90652 1.27182,-0.24609 c 3.33283,-0.64485 7.80173,-2.09401 11.87845,-3.85189 0.093,-0.0401 -0.41974,2.26353 -1.13945,5.1192 -1.09151,4.33093 -2.25556,9.70559 -3.25702,15.03839 l -0.19267,1.02584 -0.65661,0.11555 c -1.23007,0.2165 -7.70943,1.13111 -8.72977,1.23228 -0.95994,0.0952 -1.01072,0.0852 -0.9083,-0.17925 z m -41.95667,-0.19821 c -1.53263,-0.32499 -2.84405,-0.86676 -4.1644,-1.72041 -2.60254,-1.68262 -3.76627,-3.71139 -3.57686,-6.23575 0.31604,-4.2121 3.98947,-8.56734 10.56749,-12.52894 l 1.6575,-0.99822 1.69058,0.11618 c 0.92982,0.0639 3.64926,0.11617 6.04319,0.11617 l 4.35261,0 -1.10553,1.29255 c -1.10043,1.2866 -1.10401,1.29357 -0.78259,1.51872 0.60644,0.42475 1.07895,1.01049 1.46775,1.81948 0.3575,0.7438 0.3882,0.95566 0.38348,2.64613 -0.004,1.69629 -0.0434,1.94908 -0.50185,3.28749 -0.83033,2.42378 -2.63707,5.07771 -4.48773,6.59199 -0.56414,0.4616 -1.92047,1.23324 -3.73656,2.12574 -1.56803,0.77061 -3.16303,1.59313 -3.54445,1.82781 -0.61739,0.3799 -0.82072,0.42558 -1.85327,0.41636 -0.6379,-0.005 -1.72211,-0.12958 -2.40936,-0.2753 z m 5.93379,-6.43995 c 0.36326,-0.70585 1.13344,-3.01365 1.35239,-4.05233 0.43168,-2.04787 0.21666,-3.29318 -0.73342,-4.24754 -0.55176,-0.55424 -1.82742,-1.28753 -2.24573,-1.29094 -0.21136,-0.002 -0.88443,0.95331 -1.42183,2.01745 -0.9029,1.78782 -1.12496,4.07008 -0.53049,5.45197 0.40378,0.93859 1.35376,1.81645 2.40194,2.21956 0.96956,0.37287 0.93317,0.3759 1.17714,-0.0982 z m 59.26635,6.48163 c -3.31056,-0.70929 -6.27191,-2.72334 -7.36928,-5.0119 -0.57995,-1.2095 -0.66507,-3.10627 -0.20736,-4.62114 1.16757,-3.86426 4.4938,-7.40846 10.16635,-10.83254 l 1.76794,-1.06717 2.55697,0.17539 c 1.40817,0.0966 4.10676,0.14705 6.00645,0.11232 2.39026,-0.0437 3.42166,-0.0155 3.3589,0.0917 -0.0499,0.0851 -0.42827,0.55167 -0.84099,1.03679 -1.25074,1.47016 -1.20378,1.31082 -0.55812,1.89414 1.1675,1.05477 1.75632,2.7536 1.606,4.63342 -0.18461,2.30821 -1.16668,4.79078 -2.71635,6.86653 -1.71636,2.29906 -3.26238,3.47073 -6.49593,4.92303 -0.84896,0.3813 -2.0728,0.99657 -2.71964,1.36727 -1.1366,0.65135 -1.21551,0.67362 -2.35212,0.66308 -0.64683,-0.006 -1.6381,-0.10989 -2.20282,-0.23089 z m 6.07055,-7.14317 c 1.54732,-3.74392 1.69081,-6.19158 0.44244,-7.5459 -0.56875,-0.61705 -1.85449,-1.3851 -2.31767,-1.38453 -0.53435,0 -1.7917,2.41263 -2.1588,4.14119 -0.5737,2.70133 0.28905,4.56884 2.53788,5.49342 0.47443,0.19507 0.90603,0.35622 0.95913,0.35814 0.0531,0.002 0.29475,-0.47612 0.53702,-1.06232 z m -20.55404,-15.5364 c -1.14427,-0.34806 -2.13876,-1.28126 -2.57068,-2.41221 -0.57494,-1.50545 -0.0156,-3.6495 1.32624,-5.08409 2.2879,-2.44592 5.61552,-2.92418 7.57742,-1.08905 3.0957,2.89566 -0.38389,8.77261 -5.15597,8.70833 -0.4447,-0.005 -0.97435,-0.0613 -1.17701,-0.12298 z"
       style="fill:#000000;fill-opacity:1" />
    <path
       style="fill:#ffffff;fill-opacity:1"
       d="m 112.52234,915.26146 c -2.0582,-0.45383 -3.69559,-1.31333 -4.94421,-2.59525 -1.40641,-1.44389 -2.03432,-3.1096 -1.75103,-4.64509 0.71287,-3.86386 5.8027,-8.6005 13.16358,-12.25017 6.9901,-3.46583 13.3536,-4.30338 23.32428,-3.0699 l 2.30221,0.28481 1.822,-1.87367 c 4.13669,-4.25399 5.62072,-5.86021 8.38022,-9.07019 1.59446,-1.85475 2.87326,-3.39804 2.84178,-3.42953 -0.17121,-0.1712 -6.94427,0.59671 -10.85366,1.23057 -1.27585,0.20686 -2.3894,0.35289 -2.47455,0.3245 -0.30027,-0.10005 3.20074,-4.50579 3.7515,-4.72093 0.16925,-0.066 1.3331,-0.37261 2.58635,-0.68111 9.17643,-2.25885 16.95421,-2.37915 19.81541,-0.30652 2.1785,1.5781 2.48589,3.8545 1.58882,11.76588 -1.38629,12.22583 -2.06679,20.43443 -1.88517,22.74009 l 0.0601,0.76251 -0.63834,0.16333 c -3.74212,0.9577 -9.14412,2.62303 -11.20962,3.45574 -0.70363,0.28366 -1.33578,0.51575 -1.40477,0.51575 -0.069,0 -0.0321,-0.34732 0.082,-0.77182 0.42708,-1.58868 2.70607,-13.12943 2.70607,-13.7034 0,-0.37013 -4.39728,-0.44177 -9.8244,-0.16003 l -4.89967,0.25435 -2.67123,2.20603 c -4.29783,3.54934 -9.23961,7.18025 -12.36461,9.08481 -3.47925,2.12039 -7.81085,3.84775 -11.23469,4.48013 -1.50836,0.2786 -5.02313,0.28373 -6.26833,0.009 z m 13.11089,-6.16022 1.6443,-0.19385 3.05994,-2.54962 c 3.80051,-3.16664 8.13171,-6.89957 8.13171,-7.00844 0,-0.1598 -9.37781,0.33726 -14.70076,0.77921 -3.27098,0.27156 -3.12262,0.20615 -4.35192,1.91865 -0.83886,1.16858 -1.3433,2.32614 -1.55716,3.57327 -0.30677,1.7889 0.32658,2.73651 2.28009,3.41157 0.93559,0.32328 3.10629,0.35063 5.4938,0.0693 z m 34.79322,-14.38669 c 0.30558,-2.99497 0.54192,-6.43325 0.61895,-9.00421 l 0.088,-2.94015 -0.69887,0.73504 c -0.38438,0.40426 -2.13878,2.25656 -3.89866,4.11619 -1.7599,1.85967 -3.83057,4.00633 -4.60151,4.7704 l -1.40169,1.38918 3.41343,0.62587 c 1.87739,0.34423 3.97575,0.75306 4.66301,0.90851 1.83084,0.41408 1.70959,0.45416 1.81722,-0.60083 z m 23.26673,11.98112 c 2.40437,-5.30669 3.46373,-8.02185 4.11536,-10.5478 0.36488,-1.41442 0.41752,-1.88789 0.41993,-3.7781 0.002,-1.38611 -0.0556,-2.21929 -0.1598,-2.32357 -0.11875,-0.11875 -0.39611,0.0331 -1.02905,0.56334 l -0.86649,0.72589 -1.63198,6.74294 -1.63198,6.74295 -1.38167,0.10568 c -2.56083,0.19588 -6.75651,0.83478 -8.10728,1.23457 -0.15326,0.0453 -0.25726,-0.002 -0.25726,-0.11735 0,-0.1064 0.29553,-1.31815 0.65672,-2.69277 0.88355,-3.36257 3.22476,-12.98596 3.64714,-14.99133 0.33711,-1.60055 0.34388,-1.61488 0.84787,-1.79366 1.86705,-0.6623 9.5606,-2.87815 9.65731,-2.78144 0.0296,0.0295 -0.0854,0.59822 -0.25528,1.26379 -0.16995,0.66556 -0.27602,1.24306 -0.23574,1.28334 0.0402,0.0402 1.1848,-0.50692 2.54336,-1.21603 l 2.47012,-1.28928 1.10255,0.1629 c 2.5633,0.37871 3.76316,1.04413 4.51736,2.50524 0.39484,0.76489 0.48091,1.09864 0.48091,1.86473 0,1.49724 -0.5426,3.66435 -1.69234,6.7591 -0.30038,0.80855 -0.96685,2.68688 -1.48105,4.17408 l -0.9349,2.704 -2.90736,1.56775 c -1.59906,0.86227 -3.46968,1.87475 -4.15694,2.24995 -1.03156,0.56315 -3.7505,1.72637 -4.0353,1.72637 -0.0424,0 0.0952,-0.38039 0.30579,-0.84529 z m 65.7667,0.78741 c 0,-0.0222 0.59358,-1.37404 1.31908,-3.00411 2.90453,-6.52602 3.96038,-10.49841 3.5566,-13.38056 -0.0832,-0.59414 -0.18384,-1.11275 -0.22357,-1.15248 -0.0397,-0.0397 -0.47108,0.24697 -0.9586,0.63709 l -0.88641,0.70929 -0.87186,3.60385 c -0.47952,1.9821 -1.21651,5.03406 -1.63777,6.78211 l -0.76592,3.17826 -1.56662,0.10171 c -2.05019,0.13313 -4.39756,0.45834 -6.48253,0.89808 -0.92497,0.1951 -1.70008,0.33637 -1.7225,0.31397 -0.0224,-0.0224 0.25449,-1.16203 0.61532,-2.53247 0.76646,-2.91089 3.45838,-13.99437 3.82642,-15.75461 l 0.25266,-1.20829 0.825,-0.23654 c 0.45375,-0.1301 1.98268,-0.58946 3.39764,-1.02078 3.09287,-0.94284 5.89957,-1.72163 5.96582,-1.65539 0.0265,0.0264 -0.08,0.54183 -0.23667,1.14515 -0.15666,0.60334 -0.28596,1.17941 -0.28736,1.28017 -0.002,0.10347 1.11354,-0.37372 2.56284,-1.09696 l 2.56536,-1.2802 1.07308,0.18132 c 2.47492,0.41821 3.75709,1.15136 4.46842,2.5551 0.20345,0.40151 0.40782,1.05002 0.45414,1.44112 0.1642,1.38634 -0.53363,4.02378 -2.35486,8.90016 -0.60287,1.61423 -1.21184,3.36496 -1.35326,3.8905 -0.14141,0.52557 -0.33029,1.03333 -0.41974,1.12838 -0.16955,0.18017 -3.76687,2.15555 -7.09407,3.89551 -1.58369,0.82819 -4.02064,1.84682 -4.02064,1.68059 z m -43.90641,-1.62601 c -3.35427,-1.20911 -5.14303,-2.99984 -5.48261,-5.48864 -0.1782,-1.306 0.0562,-2.56357 0.95212,-5.10729 0.45471,-1.29108 0.96181,-2.73152 1.12689,-3.20095 0.16507,-0.46943 0.25842,-0.89524 0.20742,-0.94624 -0.051,-0.051 -0.73638,0.0106 -1.52308,0.13667 -0.78673,0.12618 -1.44537,0.21725 -1.46366,0.20244 -0.0182,-0.0148 1.00796,-1.25524 2.28059,-2.75651 l 2.31386,-2.72953 0.51255,-2.0393 0.51254,-2.03929 3.71746,-0.38856 c 2.0446,-0.2137 4.01266,-0.43282 4.37348,-0.48691 0.58116,-0.0871 0.65602,-0.0665 0.65602,0.18112 0,0.23915 -0.33008,1.60614 -0.67802,2.80798 l -0.10129,0.34983 2.59476,-0.0643 c 1.42711,-0.0353 2.59477,-0.058 2.59477,-0.0501 0,0.0728 -1.60288,3.79036 -2.01364,4.67027 -0.40749,0.8729 -0.60378,1.14214 -0.83945,1.15139 -0.16917,0.006 -1.16463,0.0894 -2.21213,0.18377 l -1.90455,0.17167 -0.55413,1.9111 c -0.98421,3.39434 -1.04107,4.35997 -0.30808,5.2311 0.3971,0.4719 1.35482,1.00952 2.31919,1.30185 0.32341,0.0981 0.67527,0.20595 0.7819,0.23983 0.15475,0.0493 -3.73649,4.39724 -6.13139,6.85117 l -0.38381,0.39326 -1.34772,-0.48581 z m 59.98976,0.12638 c 0.4043,-1.04374 1.33323,-4.04819 1.90469,-6.16039 0.64025,-2.36643 1.85799,-7.42228 1.85799,-7.71408 0,-0.0744 -0.51269,-0.13221 -1.13932,-0.12827 -1.27421,0.008 -2.502,-0.14282 -2.61203,-0.32086 -0.0399,-0.0645 0.33128,-0.97531 0.82484,-2.02391 l 0.89738,-1.90652 1.27182,-0.24609 c 3.33283,-0.64485 7.80173,-2.09401 11.87845,-3.85189 0.093,-0.0401 -0.41974,2.26353 -1.13945,5.1192 -1.09151,4.33093 -2.25556,9.70559 -3.25702,15.03839 l -0.19267,1.02584 -0.65661,0.11555 c -1.23007,0.2165 -7.70943,1.13111 -8.72977,1.23228 -0.95994,0.0952 -1.01072,0.0852 -0.9083,-0.17925 z m -41.95667,-0.19821 c -1.53263,-0.32499 -2.84405,-0.86676 -4.1644,-1.72041 -2.60254,-1.68262 -3.76627,-3.71139 -3.57686,-6.23575 0.31604,-4.2121 3.98947,-8.56734 10.56749,-12.52894 l 1.6575,-0.99822 1.69058,0.11618 c 0.92982,0.0639 3.64926,0.11617 6.04319,0.11617 l 4.35261,0 -1.10553,1.29255 c -1.10043,1.2866 -1.10401,1.29357 -0.78259,1.51872 0.60644,0.42475 1.07895,1.01049 1.46775,1.81948 0.3575,0.7438 0.3882,0.95566 0.38348,2.64613 -0.004,1.69629 -0.0434,1.94908 -0.50185,3.28749 -0.83033,2.42378 -2.63707,5.07771 -4.48773,6.59199 -0.56414,0.4616 -1.92047,1.23324 -3.73656,2.12574 -1.56803,0.77061 -3.16303,1.59313 -3.54445,1.82781 -0.61739,0.3799 -0.82072,0.42558 -1.85327,0.41636 -0.6379,-0.005 -1.72211,-0.12958 -2.40936,-0.2753 z m 5.93379,-6.43995 c 0.36326,-0.70585 1.13344,-3.01365 1.35239,-4.05233 0.43168,-2.04787 0.21666,-3.29318 -0.73342,-4.24754 -0.55176,-0.55424 -1.82742,-1.28753 -2.24573,-1.29094 -0.21136,-0.002 -0.88443,0.95331 -1.42183,2.01745 -0.9029,1.78782 -1.12496,4.07008 -0.53049,5.45197 0.40378,0.93859 1.35376,1.81645 2.40194,2.21956 0.96956,0.37287 0.93317,0.3759 1.17714,-0.0982 z m 59.26635,6.48163 c -3.31056,-0.70929 -6.27191,-2.72334 -7.36928,-5.0119 -0.57995,-1.2095 -0.66507,-3.10627 -0.20736,-4.62114 1.16757,-3.86426 4.4938,-7.40846 10.16635,-10.83254 l 1.76794,-1.06717 2.55697,0.17539 c 1.40817,0.0966 4.10676,0.14705 6.00645,0.11232 2.39026,-0.0437 3.42166,-0.0155 3.3589,0.0917 -0.0499,0.0851 -0.42827,0.55167 -0.84099,1.03679 -1.25074,1.47016 -1.20378,1.31082 -0.55812,1.89414 1.1675,1.05477 1.75632,2.7536 1.606,4.63342 -0.18461,2.30821 -1.16668,4.79078 -2.71635,6.86653 -1.71636,2.29906 -3.26238,3.47073 -6.49593,4.92303 -0.84896,0.3813 -2.0728,0.99657 -2.71964,1.36727 -1.1366,0.65135 -1.21551,0.67362 -2.35212,0.66308 -0.64683,-0.006 -1.6381,-0.10989 -2.20282,-0.23089 z m 6.07055,-7.14317 c 1.54732,-3.74392 1.69081,-6.19158 0.44244,-7.5459 -0.56875,-0.61705 -1.85449,-1.3851 -2.31767,-1.38453 -0.53435,0 -1.7917,2.41263 -2.1588,4.14119 -0.5737,2.70133 0.28905,4.56884 2.53788,5.49342 0.47443,0.19507 0.90603,0.35622 0.95913,0.35814 0.0531,0.002 0.29475,-0.47612 0.53702,-1.06232 z m -20.55404,-15.5364 c -1.14427,-0.34806 -2.13876,-1.28126 -2.57068,-2.41221 -0.57494,-1.50545 -0.0156,-3.6495 1.32624,-5.08409 2.2879,-2.44592 5.61552,-2.92418 7.57742,-1.08905 3.0957,2.89566 -0.38389,8.77261 -5.15597,8.70833 -0.4447,-0.005 -0.97435,-0.0613 -1.17701,-0.12298 z"
       id="path4162"
       inkscape:connector-curvature="0" />
    <path
       inkscape:connector-curvature="0"
       id="path4191"
       d="m 261.82976,915.19037 c -0.969,0.10037 -2.21559,-0.0254 -2.92831,0.76193 -0.33669,0.55698 0.20302,1.29751 0.8063,1.2909 -0.40724,1.65057 -1.40207,3.23328 -1.31863,4.97298 0.0383,0.55709 0.9361,1.02236 1.11661,0.29601 0.3757,-0.73489 0.55684,-1.64722 1.0057,-2.29163 1.42985,0.71117 2.49293,1.9833 3.9159,2.69741 0.7157,-0.15397 0.49029,-1.21434 0.0367,-1.56677 -0.65813,-0.70259 -1.41423,-1.3039 -2.13107,-1.94394 1.17152,-0.63322 2.74029,-1.05666 3.3306,-2.36724 0.25315,-1.10466 -1.03671,-1.61011 -1.90978,-1.71711 -0.63467,-0.11005 -1.28076,-0.14251 -1.9241,-0.13254 z m -66.78149,0.004 c -1.00669,0.0869 -2.25065,-0.0304 -3.02407,0.72924 -0.38048,0.55679 0.18683,1.2997 0.75464,1.33089 -0.52653,1.552 -1.28256,3.08676 -1.42753,4.73389 -0.0384,0.5379 0.71611,1.28815 1.09151,0.61567 0.47213,-0.72887 0.63558,-1.73837 1.13239,-2.36986 1.35339,0.71602 2.3935,1.88926 3.75622,2.57217 0.62905,0.19274 0.85931,-0.70152 0.44665,-1.067 -0.67629,-0.89853 -1.57176,-1.59937 -2.43788,-2.30418 1.11379,-0.67642 2.6782,-1.02321 3.31337,-2.2709 0.33763,-0.96864 -0.73465,-1.63187 -1.55043,-1.77257 -0.6704,-0.16569 -1.36686,-0.20003 -2.05487,-0.19735 z m 35.60721,0.0213 c -1.28748,0.11329 -2.69344,-0.004 -3.87972,0.56955 -0.62681,0.47745 -0.10378,1.44199 0.62181,1.40884 0.4342,0.0628 0.87689,0.0137 1.30345,-0.0773 -0.36024,1.61021 -1.26959,3.12779 -1.30228,4.79665 0.0331,0.63777 1.04143,0.96775 1.20419,0.21399 0.86221,-1.7356 1.33439,-3.67907 2.45745,-5.27016 0.6399,-0.4411 1.86745,0.21703 2.20784,-0.67085 -0.056,-0.94048 -1.30761,-0.94293 -2.0035,-0.96861 -0.20309,-0.005 -0.40613,-0.005 -0.60924,-0.002 z m -53.15493,0.003 c -1.03996,0.19928 -1.54593,1.34626 -2.22484,2.04639 -0.60521,0.70626 -1.09269,1.67445 -2.05715,1.88878 -0.49807,0.24782 -0.5031,0.88701 -0.23908,1.29703 -0.18598,0.57515 -1.03709,1.41403 -0.37163,1.95357 0.71355,0.27402 1.34135,-0.56393 1.61844,-1.12012 0.22407,-0.73141 0.9703,-0.97967 1.67566,-0.83461 0.63555,-0.11408 0.29063,0.83138 0.46271,1.24477 -0.11364,0.30271 -0.11296,0.43804 0.29338,0.78645 0.48361,0.33457 1.32592,0.10174 1.19661,-0.60108 -0.01,-0.83058 -0.10862,-1.78976 0.73011,-2.2887 -0.54366,-0.32867 -0.7921,-0.87049 -0.60845,-1.47259 -0.0293,-0.89548 0.32931,-1.88196 -0.005,-2.73466 -0.11358,-0.13979 -0.29947,-0.17332 -0.47059,-0.16523 z m 97.13197,5.9e-4 c -1.0436,0.30409 -1.58798,1.43384 -2.28305,2.18929 -0.55272,0.60862 -0.90458,1.62231 -1.827,1.67904 -0.53989,0.21051 -0.49948,0.90175 -0.30623,1.31601 -0.12016,0.61041 -1.06938,1.36801 -0.51233,1.97605 0.90709,0.36507 1.43246,-0.82277 1.90039,-1.37669 0.29202,-0.8365 1.29122,-0.47116 1.94866,-0.55324 0.11752,0.64585 -0.22902,1.56082 0.29223,2.06538 0.45476,0.24723 1.23465,0.11076 1.1607,-0.54678 0.12865,-0.62381 -0.27669,-1.53066 0.39614,-1.90015 0.36735,-0.37476 0.14218,-0.9473 -0.21952,-1.17792 -0.0407,-1.22414 0.0992,-2.44827 0.13603,-3.67186 -0.22863,8.7e-4 -0.45745,-0.002 -0.68602,8.7e-4 z m 21.64141,0.003 c -1.33668,0.0938 -2.74575,0.0312 -4.02334,0.46211 -0.66048,0.47807 -0.17721,1.58596 0.6151,1.52591 0.43037,0.0458 0.85641,-0.0494 1.28009,-0.10918 -0.40489,1.59196 -1.28914,3.1229 -1.30287,4.7914 0.0195,0.66038 1.06159,0.99492 1.21646,0.21573 0.83596,-1.73114 1.29201,-3.65443 2.3798,-5.24914 0.662,-0.44562 1.88504,0.21077 2.27701,-0.66208 -0.0412,-0.92258 -1.26085,-1.0171 -1.96408,-0.9757 -0.15939,-0.003 -0.31877,-8.7e-4 -0.47817,8.7e-4 z m -14.0014,0.002 c -0.99341,0.15221 -1.18722,1.4063 -1.56698,2.16034 -0.45294,1.48683 -1.29591,2.98121 -1.16604,4.5747 0.06,0.60802 0.93975,0.80373 1.13063,0.16786 0.54864,-1.16836 0.88446,-2.41647 1.46081,-3.56968 0.50503,1.26055 0.48704,2.88348 1.53991,3.85782 0.47576,0.49556 1.25658,0.36182 1.5872,-0.21516 1.01057,-1.73642 1.65912,-3.72606 1.82405,-5.73046 0.15109,-0.55203 -0.19759,-1.25334 -0.84201,-1.06647 -0.86372,0.34018 -0.7752,1.53025 -1.02115,2.26331 -0.20253,0.93376 -0.4673,1.94245 -0.8933,2.759 -0.66645,-1.64151 -0.53049,-3.63653 -1.65785,-5.0731 -0.11036,-0.088 -0.2566,-0.12302 -0.39527,-0.12816 z m -62.55059,0.007 c -1.4982,0.11664 -3.44126,0.3673 -4.18186,1.87738 -0.39895,1.16057 0.89438,1.98026 1.82455,2.29425 0.68833,0.27162 1.4209,0.3916 2.13603,0.56809 -1.2539,1.02413 -2.93875,0.85171 -4.40956,1.23456 -0.66452,0.52264 0.20469,1.53772 0.89242,1.46023 2.04422,-0.0721 4.18788,-0.84845 5.57142,-2.39352 0.47133,-0.90547 -0.35808,-1.99246 -1.32915,-2.00595 -0.89391,-0.23888 -2.0077,-0.22412 -2.72279,-0.75977 0.52746,-0.59564 1.51881,-0.50465 2.16435,-0.38271 0.12748,0.99007 1.7572,0.57968 1.62457,-0.33455 -0.0501,-0.74751 -0.77189,-1.62473 -1.56998,-1.55801 z m 21.48348,0.0152 c -0.97927,0.19753 -1.41977,1.30602 -2.07705,1.95464 -0.6544,0.68101 -1.02626,1.79744 -2.06043,1.95951 -0.49703,0.24245 -0.48577,0.87378 -0.25135,1.28069 -0.21026,0.59863 -1.14461,1.43573 -0.39206,2.0032 0.78124,0.38315 1.24136,-0.72153 1.63071,-1.20011 0.26997,-0.4969 0.65509,-0.89865 1.26287,-0.78908 0.70851,-0.18355 0.91744,0.13928 0.79113,0.80017 -0.0912,0.61732 0.21188,1.57586 1.01152,1.32768 0.85875,-0.25667 0.41827,-1.43084 0.61888,-2.07122 0.0617,-0.43156 0.62951,-0.74209 0.3401,-1.24681 -0.2275,-0.2972 -0.49215,-0.51876 -0.33571,-0.96044 -0.0199,-0.92534 0.29623,-1.90881 0.10363,-2.80076 -0.15124,-0.18639 -0.41232,-0.25086 -0.64224,-0.25747 z m -88.89028,0.0169 c -0.64369,-0.0143 -1.95563,0.20661 -1.71332,1.10232 0.45146,0.55391 1.34641,0.34228 1.97663,0.50415 0.55227,0.061 1.21857,0.0668 1.68004,0.18275 -1.36168,1.44167 -2.94022,2.70454 -4.17046,4.25892 -0.35516,0.69051 0.31354,1.4559 1.05386,1.25587 1.89677,-0.0126 3.82956,0.14617 5.70541,-0.15589 0.74208,-0.25695 0.48032,-1.45635 -0.30506,-1.41292 -1.25002,-0.11592 -2.50932,-0.0217 -3.76235,-0.0847 1.41442,-1.3971 3.05447,-2.53904 4.44838,-3.94539 0.55491,-0.57389 0.007,-1.51752 -0.75405,-1.44942 -1.37614,-0.18725 -2.77055,-0.26756 -4.15908,-0.25573 z m 11.19656,0.007 c -0.6838,-0.0134 -1.89113,0.0569 -1.88555,0.98993 0.32214,0.71711 1.34952,0.47758 1.97897,0.61217 0.58179,0.034 1.16382,0.0652 1.74484,0.11064 -1.35119,1.5088 -3.04167,2.73591 -4.19294,4.41276 -0.39754,0.64903 0.3217,1.32047 0.98672,1.17443 1.88566,0.004 3.80361,0.12867 5.67126,-0.14392 0.64319,-0.20418 0.77745,-1.17952 0.0747,-1.41789 -1.32326,-0.31457 -2.72003,-0.0266 -4.0683,-0.0923 1.44025,-1.40285 3.09319,-2.58196 4.51495,-3.99503 0.56825,-0.68264 -0.30912,-1.5015 -1.02671,-1.45817 -1.25997,-0.12891 -2.53127,-0.19288 -3.79797,-0.19267 z m -29.62007,0.0718 c -0.80597,0.0172 -2.05295,0.42671 -2.02363,1.40008 0.13921,0.33104 0.4132,0.54423 0.0998,0.93475 -0.42949,1.36651 -1.08526,2.72903 -1.16537,4.1693 0.004,0.62741 0.91283,1.04867 1.20011,0.36725 0.46848,-0.72118 0.38602,-1.90655 1.48591,-1.92497 1.78947,-0.66759 3.67952,-1.44654 4.97151,-2.9038 0.54438,-0.77943 -0.47655,-1.51606 -1.14989,-1.70402 -1.10902,-0.27626 -2.27995,-0.31394 -3.41847,-0.33864 z m 11.8391,0.0225 c -0.93242,0.22568 -1.09563,1.42146 -1.47062,2.1569 -0.43287,1.41797 -1.16425,2.80599 -1.24664,4.29935 -0.002,0.73654 0.99266,1.07988 1.24682,0.29747 0.74415,-1.81115 1.56627,-3.59537 2.31294,-5.40502 0.22659,-0.57453 -0.17108,-1.37989 -0.8425,-1.3487 z m 60.08877,0.0312 c -0.49464,0.1169 -0.82735,0.573 -1.32184,0.71202 -0.45643,0.57518 -0.0848,1.4732 -0.6694,2.03093 -0.31628,0.3593 -1.06132,0.67719 -0.69975,1.28039 0.1107,0.49487 -0.44706,1.03679 -0.43496,1.61319 -0.1619,0.80608 0.54766,1.61995 1.38928,1.42091 1.55691,-0.0988 3.28769,-0.0787 4.63054,-0.97339 0.49036,-0.35245 0.30999,-1.35044 -0.40227,-1.16712 -1.24476,0.24021 -2.57057,0.72487 -3.80643,0.50124 0.024,-0.64238 0.40071,-1.27926 1.12619,-1.19816 1.0979,-0.27765 2.29734,-0.0934 3.34058,-0.5353 0.53144,-0.55718 -0.34633,-1.14748 -0.8968,-1.06378 -0.77726,-0.0582 -1.55327,0.0514 -2.32987,0.0662 0.25148,-0.82844 1.11728,-0.93889 1.85631,-0.96893 0.84703,-0.23208 1.89911,0 2.63469,-0.53011 0.28506,-0.70798 -0.72463,-0.95504 -1.23893,-0.91285 -1.05944,-0.0267 -2.14969,0.0729 -3.15953,-0.27675 l -0.0178,0.002 z m 47.53971,0.0575 c -0.66074,-0.0778 -1.1468,0.4777 -1.10844,1.11487 -0.27476,1.5697 -1.0394,3.30898 -2.53217,4.05254 -0.48341,0.11511 -1.322,0.33049 -1.37615,-0.40988 -0.19218,-1.398 0.85725,-2.59681 1.17822,-3.9051 0.20975,-0.75737 -0.87458,-1.07843 -1.27368,-0.49365 -1.24485,1.55807 -2.06965,3.85256 -1.15953,5.7606 0.90817,1.32322 2.92902,1.02044 4.07442,0.18012 1.61982,-1.1846 2.73845,-3.07705 3.04655,-5.05413 0.0855,-0.56776 -0.15456,-1.29778 -0.84922,-1.24537 z m 9.10783,1.39162 c 0.2687,0.0274 1.26301,-0.0207 0.64263,0.25846 -0.53081,0.30588 -1.09343,0.59194 -1.63956,0.83335 0.29896,-0.4529 0.23107,-1.35131 0.99693,-1.09181 z m -66.66647,0.0671 c 0.63818,-0.0617 0.71856,0.10204 0.0925,0.369 -0.45045,0.24849 -0.91889,0.46268 -1.3922,0.66355 0.3087,-0.67264 0.36244,-1.28856 1.29966,-1.03255 z m -60.45339,0.2102 c 0.22847,0.049 1.49841,-0.097 0.74529,0.21835 -0.80624,0.42209 -1.65362,0.76019 -2.50211,1.08656 0.33887,-0.7029 0.5482,-1.63566 1.53437,-1.30526 l 0.14947,2.9e-4 0.073,1.2e-4 z m 48.19421,0.14153 c -0.67098,-0.10167 -1.73119,0.35935 -1.40037,1.18697 0.16417,0.36312 0.49724,0.61388 0.73069,0.92921 -0.12119,-0.46101 0.62216,-0.32243 0.9184,-0.51612 1.09041,-0.33103 2.16434,0.1707 3.2331,0.24872 0.69035,-0.10878 0.86045,-1.13429 0.14099,-1.36068 -1.12548,-0.49298 -2.41816,-0.47464 -3.62281,-0.4881 z m -7.29175,1.42781 c -0.0566,0.42444 -0.29662,-0.0803 0,0 z m 63.80004,-0.0143 c -0.11014,0.3411 -0.11072,-0.12198 0,0 z m 33.35703,0.056 c -0.17025,0.3814 -0.0954,-0.23384 0,0 z"
       style="fill:#000000;fill-opacity:1" />
    <path
       style="fill:#ffffff;fill-opacity:1"
       d="m 260.90118,914.79751 c -0.969,0.10037 -2.21559,-0.0254 -2.92831,0.76193 -0.33669,0.55698 0.20302,1.29751 0.8063,1.2909 -0.40724,1.65057 -1.40207,3.23328 -1.31863,4.97298 0.0383,0.55709 0.9361,1.02236 1.11661,0.29601 0.3757,-0.73489 0.55684,-1.64722 1.0057,-2.29163 1.42985,0.71117 2.49293,1.9833 3.9159,2.69741 0.7157,-0.15397 0.49029,-1.21434 0.0367,-1.56677 -0.65813,-0.70259 -1.41423,-1.3039 -2.13107,-1.94394 1.17152,-0.63322 2.74029,-1.05666 3.3306,-2.36724 0.25315,-1.10466 -1.03671,-1.61011 -1.90978,-1.71711 -0.63467,-0.11005 -1.28076,-0.14251 -1.9241,-0.13254 z m -66.78149,0.004 c -1.00669,0.0869 -2.25065,-0.0304 -3.02407,0.72924 -0.38048,0.55679 0.18683,1.2997 0.75464,1.33089 -0.52653,1.552 -1.28256,3.08676 -1.42753,4.73389 -0.0384,0.5379 0.71611,1.28815 1.09151,0.61567 0.47213,-0.72887 0.63558,-1.73837 1.13239,-2.36986 1.35339,0.71602 2.3935,1.88926 3.75622,2.57217 0.62905,0.19274 0.85931,-0.70152 0.44665,-1.067 -0.67629,-0.89853 -1.57176,-1.59937 -2.43788,-2.30418 1.11379,-0.67642 2.6782,-1.02321 3.31337,-2.2709 0.33763,-0.96864 -0.73465,-1.63187 -1.55043,-1.77257 -0.6704,-0.16569 -1.36686,-0.20003 -2.05487,-0.19735 z m 35.60721,0.0213 c -1.28748,0.11329 -2.69344,-0.004 -3.87972,0.56955 -0.62681,0.47745 -0.10378,1.44199 0.62181,1.40884 0.4342,0.0628 0.87689,0.0137 1.30345,-0.0773 -0.36024,1.61021 -1.26959,3.12779 -1.30228,4.79665 0.0331,0.63777 1.04143,0.96775 1.20419,0.21399 0.86221,-1.7356 1.33439,-3.67907 2.45745,-5.27016 0.6399,-0.4411 1.86745,0.21703 2.20784,-0.67085 -0.056,-0.94048 -1.30761,-0.94293 -2.0035,-0.96861 -0.20309,-0.005 -0.40613,-0.005 -0.60924,-0.002 z m -53.15493,0.003 c -1.03996,0.19928 -1.54593,1.34626 -2.22484,2.04639 -0.60521,0.70626 -1.09269,1.67445 -2.05715,1.88878 -0.49807,0.24782 -0.5031,0.88701 -0.23908,1.29703 -0.18598,0.57515 -1.03709,1.41403 -0.37163,1.95357 0.71355,0.27402 1.34135,-0.56393 1.61844,-1.12012 0.22407,-0.73141 0.9703,-0.97967 1.67566,-0.83461 0.63555,-0.11408 0.29063,0.83138 0.46271,1.24477 -0.11364,0.30271 -0.11296,0.43804 0.29338,0.78645 0.48361,0.33457 1.32592,0.10174 1.19661,-0.60108 -0.01,-0.83058 -0.10862,-1.78976 0.73011,-2.2887 -0.54366,-0.32867 -0.7921,-0.87049 -0.60845,-1.47259 -0.0293,-0.89548 0.32931,-1.88196 -0.005,-2.73466 -0.11358,-0.13979 -0.29947,-0.17332 -0.47059,-0.16523 z m 97.13197,5.9e-4 c -1.0436,0.30409 -1.58798,1.43384 -2.28305,2.18929 -0.55272,0.60862 -0.90458,1.62231 -1.827,1.67904 -0.53989,0.21051 -0.49948,0.90175 -0.30623,1.31601 -0.12016,0.61041 -1.06938,1.36801 -0.51233,1.97605 0.90709,0.36507 1.43246,-0.82277 1.90039,-1.37669 0.29202,-0.8365 1.29122,-0.47116 1.94866,-0.55324 0.11752,0.64585 -0.22902,1.56082 0.29223,2.06538 0.45476,0.24723 1.23465,0.11076 1.1607,-0.54678 0.12865,-0.62381 -0.27669,-1.53066 0.39614,-1.90015 0.36735,-0.37476 0.14218,-0.9473 -0.21952,-1.17792 -0.0407,-1.22414 0.0992,-2.44827 0.13603,-3.67186 -0.22863,8.7e-4 -0.45745,-0.002 -0.68602,8.7e-4 z m 21.64141,0.003 c -1.33668,0.0938 -2.74575,0.0312 -4.02334,0.46211 -0.66048,0.47807 -0.17721,1.58596 0.6151,1.52591 0.43037,0.0458 0.85641,-0.0494 1.28009,-0.10918 -0.40489,1.59196 -1.28914,3.1229 -1.30287,4.7914 0.0195,0.66038 1.06159,0.99492 1.21646,0.21573 0.83596,-1.73114 1.29201,-3.65443 2.3798,-5.24914 0.662,-0.44562 1.88504,0.21077 2.27701,-0.66208 -0.0412,-0.92258 -1.26085,-1.0171 -1.96408,-0.9757 -0.15939,-0.003 -0.31877,-8.7e-4 -0.47817,8.7e-4 z m -14.0014,0.002 c -0.99341,0.15221 -1.18722,1.4063 -1.56698,2.16034 -0.45294,1.48683 -1.29591,2.98121 -1.16604,4.5747 0.06,0.60802 0.93975,0.80373 1.13063,0.16786 0.54864,-1.16836 0.88446,-2.41647 1.46081,-3.56968 0.50503,1.26055 0.48704,2.88348 1.53991,3.85782 0.47576,0.49556 1.25658,0.36182 1.5872,-0.21516 1.01057,-1.73642 1.65912,-3.72606 1.82405,-5.73046 0.15109,-0.55203 -0.19759,-1.25334 -0.84201,-1.06647 -0.86372,0.34018 -0.7752,1.53025 -1.02115,2.26331 -0.20253,0.93376 -0.4673,1.94245 -0.8933,2.759 -0.66645,-1.64151 -0.53049,-3.63653 -1.65785,-5.0731 -0.11036,-0.088 -0.2566,-0.12302 -0.39527,-0.12816 z m -62.55059,0.007 c -1.4982,0.11664 -3.44126,0.3673 -4.18186,1.87738 -0.39895,1.16057 0.89438,1.98026 1.82455,2.29425 0.68833,0.27162 1.4209,0.3916 2.13603,0.56809 -1.2539,1.02413 -2.93875,0.85171 -4.40956,1.23456 -0.66452,0.52264 0.20469,1.53772 0.89242,1.46023 2.04422,-0.0721 4.18788,-0.84845 5.57142,-2.39352 0.47133,-0.90547 -0.35808,-1.99246 -1.32915,-2.00595 -0.89391,-0.23888 -2.0077,-0.22412 -2.72279,-0.75977 0.52746,-0.59564 1.51881,-0.50465 2.16435,-0.38271 0.12748,0.99007 1.7572,0.57968 1.62457,-0.33455 -0.0501,-0.74751 -0.77189,-1.62473 -1.56998,-1.55801 z m 21.48348,0.0152 c -0.97927,0.19753 -1.41977,1.30602 -2.07705,1.95464 -0.6544,0.68101 -1.02626,1.79744 -2.06043,1.95951 -0.49703,0.24245 -0.48577,0.87378 -0.25135,1.28069 -0.21026,0.59863 -1.14461,1.43573 -0.39206,2.0032 0.78124,0.38315 1.24136,-0.72153 1.63071,-1.20011 0.26997,-0.4969 0.65509,-0.89865 1.26287,-0.78908 0.70851,-0.18355 0.91744,0.13928 0.79113,0.80017 -0.0912,0.61732 0.21188,1.57586 1.01152,1.32768 0.85875,-0.25667 0.41827,-1.43084 0.61888,-2.07122 0.0617,-0.43156 0.62951,-0.74209 0.3401,-1.24681 -0.2275,-0.2972 -0.49215,-0.51876 -0.33571,-0.96044 -0.0199,-0.92534 0.29623,-1.90881 0.10363,-2.80076 -0.15124,-0.18639 -0.41232,-0.25086 -0.64224,-0.25747 z m -88.89028,0.0169 c -0.64369,-0.0143 -1.95563,0.20661 -1.71332,1.10232 0.45146,0.55391 1.34641,0.34228 1.97663,0.50415 0.55227,0.061 1.21857,0.0668 1.68004,0.18275 -1.36168,1.44167 -2.94022,2.70454 -4.17046,4.25892 -0.35516,0.69051 0.31354,1.4559 1.05386,1.25587 1.89677,-0.0126 3.82956,0.14617 5.70541,-0.15589 0.74208,-0.25695 0.48032,-1.45635 -0.30506,-1.41292 -1.25002,-0.11592 -2.50932,-0.0217 -3.76235,-0.0847 1.41442,-1.3971 3.05447,-2.53904 4.44838,-3.94539 0.55491,-0.57389 0.007,-1.51752 -0.75405,-1.44942 -1.37614,-0.18725 -2.77055,-0.26756 -4.15908,-0.25573 z m 11.19656,0.007 c -0.6838,-0.0134 -1.89113,0.0569 -1.88555,0.98993 0.32214,0.71711 1.34952,0.47758 1.97897,0.61217 0.58179,0.034 1.16382,0.0652 1.74484,0.11064 -1.35119,1.5088 -3.04167,2.73591 -4.19294,4.41276 -0.39754,0.64903 0.3217,1.32047 0.98672,1.17443 1.88566,0.004 3.80361,0.12867 5.67126,-0.14392 0.64319,-0.20418 0.77745,-1.17952 0.0747,-1.41789 -1.32326,-0.31457 -2.72003,-0.0266 -4.0683,-0.0923 1.44025,-1.40285 3.09319,-2.58196 4.51495,-3.99503 0.56825,-0.68264 -0.30912,-1.5015 -1.02671,-1.45817 -1.25997,-0.12891 -2.53127,-0.19288 -3.79797,-0.19267 z m -29.62007,0.0718 c -0.80597,0.0172 -2.05295,0.42671 -2.02363,1.40008 0.13921,0.33104 0.4132,0.54423 0.0998,0.93475 -0.42949,1.36651 -1.08526,2.72903 -1.16537,4.1693 0.004,0.62741 0.91283,1.04867 1.20011,0.36725 0.46848,-0.72118 0.38602,-1.90655 1.48591,-1.92497 1.78947,-0.66759 3.67952,-1.44654 4.97151,-2.9038 0.54438,-0.77943 -0.47655,-1.51606 -1.14989,-1.70402 -1.10902,-0.27626 -2.27995,-0.31394 -3.41847,-0.33864 z m 11.8391,0.0225 c -0.93242,0.22568 -1.09563,1.42146 -1.47062,2.1569 -0.43287,1.41797 -1.16425,2.80599 -1.24664,4.29935 -0.002,0.73654 0.99266,1.07988 1.24682,0.29747 0.74415,-1.81115 1.56627,-3.59537 2.31294,-5.40502 0.22659,-0.57453 -0.17108,-1.37989 -0.8425,-1.3487 z m 60.08877,0.0312 c -0.49464,0.1169 -0.82735,0.573 -1.32184,0.71202 -0.45643,0.57518 -0.0848,1.4732 -0.6694,2.03093 -0.31628,0.3593 -1.06132,0.67719 -0.69975,1.28039 0.1107,0.49487 -0.44706,1.03679 -0.43496,1.61319 -0.1619,0.80608 0.54766,1.61995 1.38928,1.42091 1.55691,-0.0988 3.28769,-0.0787 4.63054,-0.97339 0.49036,-0.35245 0.30999,-1.35044 -0.40227,-1.16712 -1.24476,0.24021 -2.57057,0.72487 -3.80643,0.50124 0.024,-0.64238 0.40071,-1.27926 1.12619,-1.19816 1.0979,-0.27765 2.29734,-0.0934 3.34058,-0.5353 0.53144,-0.55718 -0.34633,-1.14748 -0.8968,-1.06378 -0.77726,-0.0582 -1.55327,0.0514 -2.32987,0.0662 0.25148,-0.82844 1.11728,-0.93889 1.85631,-0.96893 0.84703,-0.23208 1.89911,0 2.63469,-0.53011 0.28506,-0.70798 -0.72463,-0.95504 -1.23893,-0.91285 -1.05944,-0.0267 -2.14969,0.0729 -3.15953,-0.27675 l -0.0178,0.002 z m 47.53971,0.0575 c -0.66074,-0.0778 -1.1468,0.4777 -1.10844,1.11487 -0.27476,1.5697 -1.0394,3.30898 -2.53217,4.05254 -0.48341,0.11511 -1.322,0.33049 -1.37615,-0.40988 -0.19218,-1.398 0.85725,-2.59681 1.17822,-3.9051 0.20975,-0.75737 -0.87458,-1.07843 -1.27368,-0.49365 -1.24485,1.55807 -2.06965,3.85256 -1.15953,5.7606 0.90817,1.32322 2.92902,1.02044 4.07442,0.18012 1.61982,-1.1846 2.73845,-3.07705 3.04655,-5.05413 0.0855,-0.56776 -0.15456,-1.29778 -0.84922,-1.24537 z m 9.10783,1.39162 c 0.2687,0.0274 1.26301,-0.0207 0.64263,0.25846 -0.53081,0.30588 -1.09343,0.59194 -1.63956,0.83335 0.29896,-0.4529 0.23107,-1.35131 0.99693,-1.09181 z m -66.66647,0.0671 c 0.63818,-0.0617 0.71856,0.10204 0.0925,0.369 -0.45045,0.24849 -0.91889,0.46268 -1.3922,0.66355 0.3087,-0.67264 0.36244,-1.28856 1.29966,-1.03255 z m -60.45339,0.2102 c 0.22847,0.049 1.49841,-0.097 0.74529,0.21835 -0.80624,0.42209 -1.65362,0.76019 -2.50211,1.08656 0.33887,-0.7029 0.5482,-1.63566 1.53437,-1.30526 l 0.14947,2.9e-4 0.073,1.2e-4 z m 48.19421,0.14153 c -0.67098,-0.10167 -1.73119,0.35935 -1.40037,1.18697 0.16417,0.36312 0.49724,0.61388 0.73069,0.92921 -0.12119,-0.46101 0.62216,-0.32243 0.9184,-0.51612 1.09041,-0.33103 2.16434,0.1707 3.2331,0.24872 0.69035,-0.10878 0.86045,-1.13429 0.14099,-1.36068 -1.12548,-0.49298 -2.41816,-0.47464 -3.62281,-0.4881 z m -7.29175,1.42781 c -0.0566,0.42444 -0.29662,-0.0803 0,0 z m 63.80004,-0.0143 c -0.11014,0.3411 -0.11072,-0.12198 0,0 z m 33.35703,0.056 c -0.17025,0.3814 -0.0954,-0.23384 0,0 z"
       id="path4179"
       inkscape:connector-curvature="0" />
  </g>
</svg>
